<svg width="141" height="141" viewBox="0 0 141 141" fill="none" xmlns="http://www.w3.org/2000/svg">
<path d="M32.0703 11.4082L109.57 11.4082C121.32 11.4082 130.82 21.1518 130.82 33.2031V109.613C130.82 121.665 121.32 131.408 109.57 131.408H32.0703C20.3203 131.408 10.8203 121.665 10.8203 109.613L10.8203 33.2031C10.8203 21.1518 20.3203 11.4082 32.0703 11.4082Z" fill="#330000" stroke="#150202" stroke-width="17"/>
<path d="M71.1751 86.4582H52.5751L48.7751 98.2082C48.6751 98.6582 48.2751 98.9582 47.8251 98.9082H38.4251C37.8751 98.9082 37.7251 98.6082 37.8751 98.0082L53.9751 51.6582C54.1251 51.1582 54.2751 50.6082 54.4751 50.0082C54.6751 48.9582 54.7751 47.8582 54.7751 46.7582C54.7251 46.5082 54.9251 46.2582 55.1751 46.2082H68.1251C68.5251 46.2082 68.7251 46.3582 68.7751 46.6082L87.0251 98.1082C87.1751 98.6582 87.0251 98.9082 86.5251 98.9082H76.0751C75.7251 98.9582 75.3751 98.7082 75.2751 98.3582L71.1751 86.4582ZM55.4751 76.3082H68.1751C67.8751 75.2582 67.4751 74.0082 67.0251 72.7082C66.5751 71.3582 66.1251 69.9082 65.6751 68.4082C65.1751 66.8582 64.7251 65.3582 64.2251 63.8082C63.7251 62.2582 63.2751 60.8082 62.8751 59.3582C62.4751 57.9582 62.1251 56.6582 61.7751 55.4582H61.6751C61.2251 57.6082 60.6751 59.7582 59.9751 61.9082C59.2251 64.3082 58.4751 66.8082 57.6751 69.3082C56.9751 71.8582 56.2251 74.2082 55.4751 76.3082ZM98.1751 54.9582C96.5251 55.0082 94.9251 54.3582 93.7251 53.2082C92.5751 51.9582 91.9751 50.3082 92.0251 48.6082C91.9751 46.9082 92.6251 45.3082 93.8251 44.1582C95.0251 43.0082 96.6251 42.4082 98.2751 42.4082C100.225 42.4082 101.725 43.0082 102.825 44.1582C103.925 45.3582 104.525 46.9582 104.475 48.6082C104.525 50.3082 103.925 51.9582 102.725 53.2082C101.575 54.4082 99.8751 55.0582 98.1751 54.9582ZM92.5751 98.3582V59.8582C92.5751 59.3582 92.7751 59.1582 93.2251 59.1582H103.125C103.575 59.1582 103.775 59.4082 103.775 59.8582V98.3582C103.775 98.9082 103.575 99.1582 103.125 99.1582H93.3251C92.8251 99.1582 92.5751 98.8582 92.5751 98.3582Z" fill="#FF9A00"/>
</svg>
