<svg width="140" height="140" viewBox="0 0 140 140" fill="none" xmlns="http://www.w3.org/2000/svg">
<path d="M111.064 11.5C116.941 11.5 121.551 16.5433 121.024 22.3964L113.15 109.881C112.776 114.035 109.864 117.521 105.842 118.626L72.5878 127.77C70.8513 128.248 69.0181 128.248 67.2818 127.77L34.1424 118.645C30.122 117.538 27.2106 114.052 26.8372 109.899L18.9716 22.3953C18.4455 16.5426 23.0551 11.5 28.9314 11.5H111.064Z" fill="#264DE4"/>
<path d="M111.064 11.5C116.941 11.5 121.551 16.5433 121.024 22.3964L113.15 109.881C112.776 114.035 109.864 117.521 105.842 118.626L72.5878 127.77C70.8513 128.248 69.0181 128.248 67.2818 127.77L34.1424 118.645C30.122 117.538 27.2106 114.052 26.8372 109.899L18.9716 22.3953C18.4455 16.5426 23.0551 11.5 28.9314 11.5H111.064Z" stroke="black"/>
<path d="M104.418 110.084L112.516 20.1104H70V119.548L104.418 110.084Z" fill="#2965F1"/>
<path d="M39.6953 59.166L40.8624 72.081H70.0014V59.166H39.6953Z" fill="#EBEBEB"/>
<path d="M69.9949 33.0254H69.9498H37.3438L38.5274 45.9407H69.9949V33.0254Z" fill="#EBEBEB"/>
<path d="M70.0026 106.145V92.7083L69.9455 92.7234L55.4436 88.8395L54.5166 78.5391H47.4698H41.4453L43.2696 98.8177L69.9426 106.162L70.0026 106.145Z" fill="#EBEBEB"/>
<path d="M85.9873 72.081L84.4759 88.8309L69.9531 92.7188V106.155L96.6474 98.8174L96.8432 96.6354L99.9031 62.634L100.221 59.166L102.572 33.0254H69.9531V45.9407H88.3014L87.1166 59.166H69.9531V72.081H85.9873Z" fill="white"/>
</svg>
