<svg width="140" height="140" viewBox="0 0 140 140" fill="none" xmlns="http://www.w3.org/2000/svg">
<path d="M31.25 10L108.75 10C120.5 10 130 19.7436 130 31.7949V108.205C130 120.256 120.5 130 108.75 130H31.25C19.5 130 10 120.256 10 108.205L10 31.7949C10 19.7436 19.5 10 31.25 10Z" fill="#101010" stroke="#040404" stroke-width="17"/>
<g clip-path="url(#clip0_277_108)">
<path d="M57.5053 108C64.4039 108 70.0028 102.4 70.0028 95.5V83H57.5053C50.6067 83 45.0078 88.6 45.0078 95.5C45.0078 102.4 50.6067 108 57.5053 108Z" fill="#0ACF83"/>
<path d="M45.0078 70.5C45.0078 63.6 50.6067 58 57.5053 58H70.0028V83H57.5053C50.6067 83 45.0078 77.4 45.0078 70.5Z" fill="#A259FF"/>
<path d="M45.0078 45.5C45.0078 38.6 50.6067 33 57.5053 33H70.0028V58H57.5053C50.6067 58 45.0078 52.4 45.0078 45.5Z" fill="#F24E1E"/>
<path d="M70 33H82.4975C89.3961 33 94.995 38.6 94.995 45.5C94.995 52.4 89.3961 58 82.4975 58H70V33Z" fill="#FF7262"/>
<path d="M94.995 70.5C94.995 77.4 89.3961 83 82.4975 83C75.5989 83 70 77.4 70 70.5C70 63.6 75.5989 58 82.4975 58C89.3961 58 94.995 63.6 94.995 70.5Z" fill="#1ABCFE"/>
</g>
<defs>
<clipPath id="clip0_277_108">
<rect width="50" height="75" fill="white" transform="translate(45 33)"/>
</clipPath>
</defs>
</svg>
