<svg width="140" height="140" viewBox="0 0 140 140" fill="none" xmlns="http://www.w3.org/2000/svg">
<path d="M27.7991 116.84L19.3841 22.3874C18.8629 16.5374 23.4715 11.5 29.3446 11.5H110.661C116.535 11.5 121.143 16.5378 120.622 22.3879L112.822 109.883C112.453 114.034 109.548 117.52 105.532 118.632L69.918 128.5" fill="#E44D26"/>
<path d="M70.0078 119.541V20.1455H112.184L104.135 110.014" fill="#F16529"/>
<path d="M37.5859 33.0283H70.0069V45.9398H51.7488L52.9433 59.1642H70.0069V72.0473H41.1124M41.6812 78.5315H54.6496L55.5597 88.855L70.0069 92.7228V106.203L43.5013 98.8088" fill="#EBEBEB"/>
<path d="M102.317 33.0283H69.9531V45.9398H101.123M99.9568 59.1642H69.9531V72.0757H85.8792L84.3719 88.855L69.9531 92.7228V106.146L96.4018 98.8088" fill="white"/>
</svg>
