<svg width="140" height="140" viewBox="0 0 140 140" fill="none" xmlns="http://www.w3.org/2000/svg">
<path d="M114 10H26C17.1634 10 10 17.1634 10 26V114C10 122.837 17.1634 130 26 130H114C122.837 130 130 122.837 130 114V26C130 17.1634 122.837 10 114 10Z" fill="#F7DF1E" stroke="#1E1E1E" stroke-width="17"/>
<path d="M87.6071 100.75C90.0242 104.697 93.169 107.598 98.7309 107.598C103.403 107.598 106.388 105.263 106.388 102.036C106.388 98.1694 103.321 96.7998 98.1785 94.5503L95.3595 93.3408C87.2223 89.8741 81.8166 85.5313 81.8166 76.3503C81.8166 67.8932 88.2604 61.4551 98.3309 61.4551C105.5 61.4551 110.655 63.9503 114.369 70.4836L105.588 76.1217C103.655 72.6551 101.569 71.2894 98.3309 71.2894C95.028 71.2894 92.9347 73.3846 92.9347 76.1217C92.9347 79.5046 95.0299 80.8741 99.868 82.9694L102.687 84.177C112.268 88.2855 117.678 92.4741 117.678 101.891C117.678 112.044 109.702 117.606 98.9918 117.606C88.5195 117.606 81.7537 112.615 78.4433 106.074L87.6071 100.75ZM47.7728 101.727C49.5442 104.87 51.1557 107.527 55.0299 107.527C58.7347 107.527 61.0718 106.078 61.0718 100.442V62.0989H72.348V100.594C72.348 112.27 65.5023 117.585 55.5099 117.585C46.4814 117.585 41.2528 112.912 38.5938 107.285L47.7728 101.727Z" fill="#1E1E1E"/>
</svg>
