<svg width="140" height="140" viewBox="0 0 140 140" fill="none" xmlns="http://www.w3.org/2000/svg">
<g clip-path="url(#clip0_124_81)">
<path d="M70 131.25C103.827 131.25 131.25 103.827 131.25 70C131.25 36.1726 103.827 8.75 70 8.75C36.1726 8.75 8.75 36.1726 8.75 70C8.75 103.827 36.1726 131.25 70 131.25Z" fill="#8892BF" stroke="#4C526C" stroke-width="17"/>
<path d="M64.4851 48H70.6997L68.9433 57.3106H74.5276C77.5902 57.3759 79.8715 58.0582 81.373 59.3581C82.9041 60.6575 83.3546 63.1281 82.7243 66.7676L79.7069 83H73.402L76.284 67.4986C76.584 65.8735 76.4941 64.7201 76.014 64.0377C75.5338 63.3553 74.498 63.0141 72.9066 63.0141L67.9075 62.9654L64.2146 83H58L64.4851 48Z" fill="white"/>
<path fill-rule="evenodd" clip-rule="evenodd" d="M36.4418 57H48.5145C52.0579 57.0321 54.6259 58.1391 56.2177 60.3191C57.8096 62.4995 58.335 65.4769 57.7944 69.2522C57.5846 70.9775 57.1187 72.6692 56.3979 74.3292C55.7071 75.9887 54.7465 77.4854 53.5151 78.8199C52.0131 80.512 50.4065 81.5857 48.6948 82.0419C46.983 82.4977 45.2108 82.7252 43.3792 82.7252H37.9734L36.2616 92H30L36.4418 57ZM39.0095 77.2091L41.7034 62.6136H42.6134C42.944 62.6136 43.2891 62.597 43.6495 62.5649C46.0523 62.5324 48.0488 62.7765 49.6409 63.297C51.2623 63.8174 51.803 65.7865 51.2623 69.2035C50.6022 73.2717 49.3101 75.6471 47.3884 76.3304C45.4667 76.9816 43.0638 77.2904 40.1808 77.2579H39.5501C39.3699 77.2579 39.1897 77.2412 39.0095 77.2091Z" fill="white"/>
<path fill-rule="evenodd" clip-rule="evenodd" d="M100.515 57H88.4417L82 92H88.2615L89.9736 82.7252H95.3793C97.2109 82.7252 98.983 82.4977 100.695 82.0419C102.407 81.5857 104.013 80.512 105.515 78.8199C106.746 77.4854 107.707 75.9887 108.398 74.3292C109.119 72.6692 109.585 70.9775 109.794 69.2522C110.335 65.4769 109.81 62.4995 108.218 60.3191C106.626 58.1391 104.058 57.0321 100.515 57ZM93.7035 62.6136L91.0097 77.2091C91.1899 77.2412 91.3701 77.2579 91.5503 77.2579H92.1808C95.0641 77.2904 97.4666 76.9816 99.3885 76.3304C101.31 75.6471 102.602 73.2717 103.263 69.2035C103.803 65.7865 103.263 63.8174 101.641 63.297C100.049 62.7765 98.0524 62.5324 95.6494 62.5649C95.289 62.597 94.9442 62.6136 94.6134 62.6136H93.7035Z" fill="white"/>
</g>
<defs>
<clipPath id="clip0_124_81">
<rect width="140" height="140" fill="white"/>
</clipPath>
</defs>
</svg>
