<svg width="140" height="141" viewBox="0 0 140 141" fill="none" xmlns="http://www.w3.org/2000/svg">
<path d="M31.25 11.667H108.75C120.5 11.667 130 21.4106 130 33.4619V109.872C130 121.923 120.5 131.667 108.75 131.667H31.25C19.5 131.667 10 121.923 10 109.872V33.4619C10 21.4106 19.5 11.667 31.25 11.667Z" fill="#001E36" stroke="#03101A" stroke-width="17"/>
<path d="M34 96.818V45.5146C34 45.1656 34.15 44.9661 34.5 44.9661C35.35 44.9661 36.15 44.9661 37.3 44.9163C38.5 44.8664 39.75 44.8664 41.1 44.8166C42.45 44.7667 43.9 44.7667 45.45 44.7168C47 44.667 48.5 44.667 50 44.667C54.1 44.667 57.5 45.1656 60.3 46.2126C62.8 47.0602 65.1 48.4562 67 50.3009C68.6 51.8963 69.85 53.8408 70.65 55.9847C71.4 58.0787 71.8 60.2225 71.8 62.4661C71.8 66.7539 70.8 70.2938 68.8 73.0858C66.8 75.8778 64 77.9718 60.75 79.1684C57.35 80.4149 53.6 80.8636 49.5 80.8636C48.3 80.8636 47.5 80.8636 47 80.8137C46.5 80.7639 45.8 80.7639 44.85 80.7639V96.7681C44.9 97.1171 44.65 97.4163 44.3 97.4661C44.25 97.4661 44.2 97.4661 44.1 97.4661H34.6C34.2 97.4661 34 97.2667 34 96.818ZM44.9 54.5886V71.3408C45.6 71.3906 46.25 71.4405 46.85 71.4405H49.5C51.45 71.4405 53.4 71.1414 55.25 70.5431C56.85 70.0943 58.25 69.147 59.35 67.9006C60.4 66.6542 60.9 64.959 60.9 62.7653C60.95 61.2197 60.55 59.6741 59.75 58.328C58.9 57.0317 57.7 56.0345 56.25 55.4861C54.4 54.7382 52.4 54.4391 50.35 54.4889C49.05 54.4889 47.9 54.4889 46.95 54.5388C45.95 54.4889 45.25 54.5388 44.9 54.5886Z" fill="#31A8FF"/>
<path d="M102.997 68.2991C101.497 67.5013 99.897 66.9529 98.197 66.6039C96.347 66.205 94.497 65.9557 92.597 65.9557C91.597 65.9059 90.547 66.0555 89.597 66.3048C88.947 66.4543 88.397 66.8033 88.047 67.3019C87.797 67.7008 87.647 68.1993 87.647 68.6481C87.647 69.0968 87.847 69.5455 88.147 69.9444C88.597 70.4928 89.197 70.9415 89.847 71.2905C90.997 71.8888 92.197 72.4372 93.397 72.9358C96.097 73.8332 98.697 75.0797 101.097 76.5754C102.747 77.6224 104.097 79.0184 105.047 80.7136C105.847 82.309 106.247 84.054 106.197 85.8489C106.247 88.1922 105.547 90.5355 104.247 92.48C102.847 94.4743 100.897 96.0199 98.647 96.9173C96.197 97.9643 93.197 98.5127 89.597 98.5127C87.297 98.5127 85.047 98.3133 82.797 97.8646C81.047 97.5654 79.297 97.017 77.697 96.2691C77.347 96.0697 77.097 95.7207 77.147 95.3218V86.6466C77.147 86.4971 77.197 86.2976 77.347 86.1979C77.497 86.0982 77.647 86.1481 77.797 86.2478C79.747 87.3945 81.797 88.1922 83.997 88.6908C85.897 89.1894 87.897 89.4387 89.897 89.4387C91.797 89.4387 93.147 89.1894 94.047 88.7406C94.847 88.3916 95.397 87.5441 95.397 86.6466C95.397 85.9486 94.997 85.3005 94.197 84.6523C93.397 84.0042 91.747 83.2563 89.297 82.309C86.747 81.4116 84.397 80.215 82.197 78.7193C80.647 77.6224 79.347 76.1765 78.397 74.4814C77.597 72.886 77.197 71.1409 77.247 69.3959C77.247 67.252 77.847 65.2079 78.947 63.3632C80.197 61.3689 82.047 59.7734 84.197 58.7763C86.547 57.5797 89.497 57.0312 93.047 57.0312C95.097 57.0312 97.197 57.1808 99.247 57.48C100.747 57.6794 102.197 58.0783 103.547 58.6267C103.747 58.6765 103.947 58.876 104.047 59.0754C104.097 59.2748 104.147 59.4743 104.147 59.6737V67.8005C104.147 67.9999 104.047 68.1993 103.897 68.2991C103.447 68.3988 103.197 68.3988 102.997 68.2991Z" fill="#31A8FF"/>
</svg>
