<svg width="140" height="140" viewBox="0 0 140 140" fill="none" xmlns="http://www.w3.org/2000/svg">
<path d="M31.25 10L108.75 10C120.5 10 130 19.7436 130 31.7949V108.205C130 120.256 120.5 130 108.75 130H31.25C19.5 130 10 120.256 10 108.205L10 31.7949C10 19.7436 19.5 10 31.25 10Z" fill="#3765AF" stroke="#092C65" stroke-width="17"/>
<g clip-path="url(#clip0_625_365)">
<path d="M65.0473 106.952C58.0269 106.446 51.0881 104.679 46.8326 102.313C44.4087 100.966 42.562 99.3101 41.8374 97.8342L41.4062 96.956V69.4116V41.8673L41.7474 41.1745C43.272 38.0792 48.1377 35.2887 54.93 33.6144C57.2357 33.046 60.5642 32.4799 63.2797 32.1945C66.0525 31.903 73.4022 31.9473 76.1681 32.2727C83.5194 33.1364 89.7749 35.07 93.63 37.6702C95.1166 38.673 96.6421 40.2775 97.1589 41.3819L97.602 42.3288L97.5641 69.7899L97.5262 97.251L97.1705 97.9737C96.9749 98.371 96.384 99.153 95.8574 99.7111C92.6519 103.109 85.7761 105.623 76.7574 106.694C74.9192 106.912 66.9332 107.088 65.0473 106.952ZM77.9848 83.3505C77.9578 83.2801 76.9083 82.3451 75.6526 81.2727C74.3969 80.2003 73.3154 79.2725 73.2493 79.2109C73.1832 79.1493 73.4152 78.9312 73.7648 78.7263C74.1145 78.5213 74.7844 77.9511 75.2536 77.4591C76.6255 76.0205 77.2728 74.2434 77.2728 71.9157C77.2728 69.6241 76.5747 67.7752 75.1764 66.3638C73.7671 64.9411 72.149 64.3299 69.7926 64.3299C66.1604 64.3299 63.3708 66.4493 62.4804 69.8853C62.1742 71.0672 62.1758 73.4554 62.4837 74.5034C63.2866 77.237 65.4734 79.2223 68.195 79.6885C69.116 79.8463 69.2408 79.9143 69.8687 80.6008C70.2419 81.0088 71.0076 81.8231 71.5704 82.4105L72.5936 83.4784H75.3138C76.8099 83.4784 78.0118 83.4208 77.9848 83.3505ZM68.6563 75.7343C68.0015 75.3928 67.7539 75.1278 67.3805 74.3687C67.0921 73.7824 67.0427 73.4488 67.0395 72.063C67.0363 70.6548 67.0811 70.3505 67.3822 69.7391C67.8749 68.7384 68.5539 68.2648 69.6042 68.1888C71.0662 68.0827 71.9102 68.8003 72.3524 70.5246C72.8947 72.6388 72.2984 74.8865 70.9973 75.6324C70.3148 76.0238 69.2966 76.0681 68.6563 75.7343ZM56.5994 79.6585C59.4513 79.1177 61.0703 77.4592 61.0703 75.0783C61.0703 72.9661 60.0251 71.7353 57.1364 70.4458C55.4828 69.7076 54.8838 69.2442 54.8838 68.7028C54.8838 68.2541 55.4522 67.7624 56.1139 67.6388C56.76 67.5182 58.4736 67.8158 59.4856 68.2246L60.3338 68.5672V66.6897V64.812L59.4132 64.6078C58.8442 64.4816 57.6486 64.4058 56.2831 64.4097C54.3489 64.4097 53.9701 64.4568 53.2423 64.7459C51.1161 65.59 50.1071 67.0278 50.1232 69.1907C50.1384 71.2155 51.2065 72.4785 53.8649 73.6147C55.4335 74.2852 56.0622 74.7957 56.0622 75.3989C56.0622 76.6809 53.9262 76.8387 51.6647 75.7237C51.0453 75.4184 50.4889 75.1437 50.4281 75.1133C50.3674 75.0828 50.3177 75.9599 50.3177 77.0624C50.3177 79.0578 50.3198 79.0674 50.6811 79.205C52.0416 79.7222 55.0485 79.9527 56.5994 79.6585ZM89.2038 77.8075V76.1136H86.6262H84.0484V70.2954V64.4772H81.7654H79.4823V71.9893V79.5014H84.343H89.2038V77.8075ZM73.2958 48.1235C77.8328 47.8088 81.2336 47.2147 84.2263 46.2141C87.2077 45.2173 88.9689 44.0111 89.3629 42.6962C89.5147 42.1895 89.5038 41.9973 89.2917 41.4418C88.3405 38.9513 83.0271 37.0378 74.9078 36.2619C71.4347 35.93 65.1185 36.0376 61.8069 36.4849C56.754 37.1677 52.6534 38.4358 50.83 39.8795C47.1416 42.8002 51.0421 46.0126 60.1129 47.5246C64.0459 48.1802 69.1415 48.4117 73.2958 48.1235Z" fill="white"/>
</g>
<defs>
<clipPath id="clip0_625_365">
<rect width="75" height="75" fill="white" transform="translate(32 32)"/>
</clipPath>
</defs>
</svg>
