<svg width="60" height="60" viewBox="0 0 60 60" fill="none" xmlns="http://www.w3.org/2000/svg">
<path d="M5 27C3.34315 27 2 28.3431 2 30C2 31.6569 3.34315 33 5 33L5 27ZM57.1213 32.1213C58.2929 30.9498 58.2929 29.0503 57.1213 27.8787L38.0294 8.7868C36.8579 7.61523 34.9584 7.61523 33.7868 8.7868C32.6152 9.95837 32.6152 11.8579 33.7868 13.0294L50.7574 30L33.7868 46.9706C32.6152 48.1421 32.6152 50.0416 33.7868 51.2132C34.9584 52.3848 36.8579 52.3848 38.0294 51.2132L57.1213 32.1213ZM5 33L55 33L55 27L5 27L5 33Z" fill="black"/>
</svg>
