<svg width="371" height="371" viewBox="0 0 371 371" fill="none" xmlns="http://www.w3.org/2000/svg">
<path d="M158.554 2.74957L163.884 1.80957L167.894 24.4196L163.274 25.2396L160.404 9.02957L155.794 19.6696L155.374 19.7396L147.424 11.3196L150.294 27.5296L145.674 28.3496L141.664 5.73959L146.964 4.79959L154.314 12.4596L158.554 2.74957Z" fill="#F6F6F6"/>
<path d="M186.814 5.20978L176.094 5.59976L176.264 10.2198L186.094 9.85977L186.254 14.3198L176.424 14.6798L176.604 19.6298L187.324 19.2398L187.484 23.6998L172.074 24.2698L171.234 1.32977L186.644 0.759766L186.804 5.21976L186.814 5.20978Z" fill="#F6F6F6"/>
<path d="M199.945 10.4896C201.595 10.9796 202.915 11.4396 203.915 11.8696C204.915 12.2996 205.815 12.8196 206.615 13.4296C207.425 14.0296 207.975 14.7396 208.265 15.5596C208.555 16.3796 208.665 17.3396 208.565 18.4496C208.465 19.7096 208.105 20.8096 207.485 21.7296C206.875 22.6596 206.105 23.3396 205.175 23.7896C204.245 24.2396 203.295 24.5596 202.295 24.7396C201.305 24.9196 200.295 24.9696 199.275 24.8896C196.155 24.6296 193.845 23.6996 192.345 22.0996C190.845 20.4996 190.045 18.5696 189.945 16.3196L194.655 16.7096C194.885 17.9196 195.375 18.8196 196.125 19.4296C196.875 20.0396 198.035 20.4096 199.605 20.5396C200.915 20.6496 201.925 20.4996 202.655 20.0996C203.375 19.6996 203.775 19.0896 203.845 18.2596C203.885 17.7396 203.735 17.2996 203.375 16.9496C203.015 16.5996 202.575 16.3296 202.045 16.1296C201.515 15.9296 200.565 15.6196 199.195 15.1996C199.085 15.1696 199.005 15.1496 198.955 15.1296C198.905 15.1096 198.825 15.0896 198.735 15.0596C198.635 15.0296 198.545 14.9996 198.465 14.9696C197.305 14.6296 196.335 14.2896 195.555 13.9396C194.775 13.5896 194.005 13.1296 193.265 12.5696C192.525 12.0096 191.985 11.3096 191.645 10.4996C191.305 9.67958 191.185 8.7296 191.275 7.6396C191.465 5.3696 192.455 3.6796 194.265 2.5496C196.065 1.4296 198.145 0.959588 200.505 1.15959C203.385 1.39959 205.515 2.23961 206.895 3.67961C208.275 5.11961 209.025 6.8996 209.135 9.0196L204.395 8.62959C203.975 6.74959 202.575 5.7096 200.175 5.5196C198.845 5.4096 197.835 5.56959 197.135 6.00959C196.445 6.44959 196.065 7.05958 195.995 7.83958C195.945 8.46958 196.185 8.94958 196.715 9.27958C197.245 9.60958 198.325 10.0196 199.955 10.4996L199.945 10.4896Z" fill="#F6F6F6"/>
<path d="M233.045 31.0199L229.545 21.4599L227.045 20.7599L224.825 28.7198L220.305 27.4599L226.475 5.33984L235.985 7.98987C238.345 8.64987 240.015 9.80986 240.985 11.4799C241.955 13.1499 242.145 15.0899 241.525 17.2999C241.035 19.0699 240.195 20.3899 239.025 21.2699C237.855 22.1499 236.415 22.5599 234.725 22.5199L238.605 32.5598L233.045 31.0099V31.0199ZM229.795 10.9099L228.145 16.8199L232.635 18.0699C233.795 18.3899 234.735 18.3799 235.455 18.0199C236.175 17.6699 236.665 17.0299 236.925 16.0999C237.185 15.1699 237.095 14.3599 236.645 13.6699C236.205 12.9799 235.415 12.4699 234.275 12.1599L229.785 10.9099H229.795Z" fill="#F6F6F6"/>
<path d="M262.464 22.5497L252.574 18.3997L250.784 22.6597L259.854 26.4697L258.124 30.5797L249.054 26.7697L247.134 31.3397L257.024 35.4897L255.294 39.5997L241.074 33.6397L249.954 12.4697L264.174 18.4297L262.444 22.5397L262.464 22.5497Z" fill="#F6F6F6"/>
<path d="M272.153 32.9C273.443 34.04 274.443 35.01 275.163 35.83C275.883 36.64 276.483 37.49 276.953 38.38C277.433 39.27 277.623 40.14 277.553 41C277.473 41.86 277.163 42.78 276.613 43.75C275.983 44.85 275.193 45.69 274.253 46.27C273.303 46.85 272.313 47.15 271.283 47.17C270.253 47.19 269.252 47.0699 268.272 46.8099C267.292 46.5599 266.363 46.17 265.473 45.67C262.753 44.12 261.053 42.3 260.373 40.21C259.693 38.12 259.773 36.04 260.633 33.96L264.733 36.3C264.433 37.49 264.493 38.52 264.913 39.39C265.333 40.26 266.233 41.0899 267.603 41.8699C268.743 42.5199 269.723 42.82 270.553 42.76C271.383 42.7 271.993 42.3099 272.413 41.5899C272.673 41.1299 272.713 40.67 272.543 40.21C272.363 39.75 272.083 39.31 271.683 38.91C271.283 38.51 270.553 37.8199 269.493 36.8699C269.413 36.7999 269.343 36.74 269.303 36.7C269.263 36.66 269.203 36.61 269.123 36.54C269.043 36.47 268.973 36.4099 268.913 36.3399C268.003 35.5499 267.273 34.83 266.713 34.18C266.153 33.53 265.653 32.8 265.213 31.97C264.783 31.14 264.583 30.29 264.623 29.4C264.663 28.52 264.953 27.6 265.493 26.65C266.623 24.67 268.233 23.56 270.343 23.3C272.453 23.04 274.533 23.5 276.583 24.67C279.093 26.1 280.663 27.76 281.313 29.65C281.963 31.54 281.883 33.47 281.093 35.43L276.963 33.07C277.383 31.19 276.543 29.66 274.453 28.47C273.293 27.81 272.313 27.53 271.493 27.63C270.683 27.73 270.073 28.1299 269.683 28.8099C269.373 29.3599 269.383 29.9 269.723 30.42C270.063 30.94 270.873 31.77 272.143 32.89L272.153 32.9Z" fill="#F6F6F6"/>
<path d="M299.156 45.7798L290.546 39.3798L287.786 43.0898L295.686 48.9598L293.026 52.5398L285.126 46.6698L282.176 50.6498L290.786 57.0498L288.126 60.6298L275.746 51.4398L289.436 33.0098L301.806 42.1998L299.146 45.7798H299.156Z" fill="#F6F6F6"/>
<path d="M302.364 74.0299L304.744 68.7999L298.084 62.3399L292.904 64.8499L289.344 61.3999L311.494 50.8999L315.754 55.0299L305.934 77.4899L302.354 74.0199L302.364 74.0299ZM302.334 60.2499L306.664 64.4499L310.294 56.3699L302.324 60.2499H302.334Z" fill="#F6F6F6"/>
<path d="M333.375 75.3897L336.315 79.1297L325.555 87.5697C323.095 89.4997 320.675 90.2897 318.285 89.9397C315.895 89.5897 313.835 88.2998 312.095 86.0898C310.355 83.8798 309.595 81.5597 309.825 79.1597C310.055 76.7597 311.395 74.5897 313.855 72.6597L324.615 64.2197L327.555 67.9597L317.005 76.2397C314.135 78.4997 313.665 80.8598 315.615 83.3398C317.555 85.8198 319.965 85.9297 322.835 83.6697L333.385 75.3897H333.375Z" fill="#F6F6F6"/>
<path d="M329.945 112.91L327.115 108.07L331.535 99.9696L322.365 99.9396L319.555 95.1296L333.575 95.5196L339.555 83.8496L342.365 88.6596L338.225 96.2096L346.845 96.3396L349.655 101.15L336.175 100.71L329.935 112.91H329.945Z" fill="#F6F6F6"/>
<path d="M349.874 130.38L345.664 131.94L341.824 121.57L346.034 120.01L349.874 130.38Z" fill="#F6F6F6"/>
<path d="M367.735 157.97L368.615 162.84L344.675 159.45L343.625 153.64L364.895 142.18L365.775 147.05L349.605 155.56L367.735 157.96V157.97Z" fill="#F6F6F6"/>
<path d="M345.996 169.81L368.876 167.95L369.256 172.63L346.376 174.49L345.996 169.81Z" fill="#F6F6F6"/>
<path d="M359.156 188.79L358.816 201.35L346.356 201.01L346.466 197.01L350.336 197.12C349.086 196.54 348.086 195.55 347.336 194.17C346.586 192.78 346.236 191.15 346.286 189.27C346.376 186.03 347.566 183.35 349.866 181.23C352.166 179.11 355.016 178.09 358.426 178.18C361.856 178.27 364.666 179.47 366.856 181.77C369.046 184.07 370.096 186.94 370.006 190.37C369.936 193.08 369.126 195.42 367.606 197.38C366.076 199.34 364.106 200.63 361.706 201.24L361.846 196.22C362.976 195.7 363.866 194.92 364.516 193.88C365.166 192.84 365.516 191.62 365.546 190.22C365.606 188.1 364.946 186.37 363.586 185.02C362.226 183.67 360.436 182.97 358.226 182.9C356.086 182.84 354.286 183.42 352.846 184.64C351.406 185.86 350.646 187.56 350.596 189.75C350.556 191.35 350.916 192.75 351.696 193.95C352.476 195.15 353.576 195.97 355.006 196.4L355.216 188.69L359.146 188.8L359.156 188.79Z" fill="#F6F6F6"/>
<path d="M345.535 205.17L368.285 208.28L367.645 212.93L344.895 209.82L345.535 205.17Z" fill="#F6F6F6"/>
<path d="M358.946 233.37L361.316 222.91L356.806 221.89L354.636 231.49L350.286 230.51L352.456 220.91L347.626 219.82L345.256 230.28L340.906 229.3L344.306 214.26L366.696 219.32L363.296 234.36L358.946 233.38V233.37Z" fill="#F6F6F6"/>
<path d="M335.463 244.91L345.263 242.16L346.153 239.73L338.383 236.9L339.983 232.49L361.553 240.35L358.173 249.63C357.333 251.93 356.043 253.5 354.303 254.35C352.563 255.19 350.613 255.22 348.463 254.44C346.733 253.81 345.483 252.88 344.703 251.64C343.923 250.4 343.613 248.94 343.783 247.26L333.473 250.35L335.453 244.93L335.463 244.91ZM355.763 243.23L350.003 241.13L348.413 245.51C348.003 246.64 347.943 247.58 348.243 248.33C348.543 249.08 349.143 249.62 350.043 249.95C350.943 250.28 351.763 250.25 352.483 249.86C353.203 249.47 353.773 248.72 354.173 247.61L355.763 243.23Z" fill="#F6F6F6"/>
<path d="M321.263 272.57L331.403 271.76L332.743 269.54L325.663 265.27L328.083 261.25L347.743 273.11L342.643 281.56C341.383 283.66 339.813 284.95 337.943 285.45C336.073 285.94 334.153 285.6 332.193 284.41C330.623 283.46 329.573 282.3 329.043 280.94C328.513 279.57 328.493 278.08 328.983 276.46L318.273 277.51L321.253 272.57H321.263ZM341.513 274.82L336.263 271.65L333.853 275.64C333.233 276.67 332.993 277.58 333.143 278.37C333.293 279.16 333.773 279.81 334.603 280.3C335.423 280.8 336.233 280.92 337.013 280.68C337.793 280.44 338.493 279.81 339.103 278.8L341.513 274.81V274.82Z" fill="#F6F6F6"/>
<path d="M331.243 293.43C331.563 296.64 330.653 299.55 328.503 302.18C326.363 304.81 323.683 306.29 320.473 306.63C317.263 306.97 314.343 306.08 311.743 303.95C309.133 301.82 307.673 299.15 307.363 295.93C307.053 292.71 307.973 289.79 310.113 287.17C312.253 284.54 314.933 283.06 318.133 282.73C321.343 282.4 324.243 283.3 326.853 285.42C329.463 287.55 330.923 290.22 331.243 293.42V293.43ZM320.153 302.04C322.103 301.87 323.733 300.97 325.043 299.36C326.353 297.75 326.903 295.97 326.683 294.03C326.463 292.09 325.523 290.44 323.863 289.08C322.203 287.73 320.403 287.13 318.453 287.31C316.503 287.48 314.873 288.38 313.563 289.99C312.253 291.6 311.703 293.38 311.923 295.32C312.143 297.26 313.083 298.91 314.743 300.27C316.403 301.62 318.203 302.21 320.153 302.04Z" fill="#F6F6F6"/>
<path d="M298.335 317.56C297.185 318.08 296.035 318.18 294.895 317.84C293.755 317.51 292.715 316.82 291.765 315.79C290.365 314.26 289.775 312.59 290.005 310.79C290.235 308.99 291.235 307.28 292.985 305.67L300.455 298.82L315.975 315.74L308.555 322.55C306.955 324.01 305.355 324.79 303.735 324.88C302.115 324.97 300.655 324.31 299.355 322.89C297.925 321.33 297.585 319.55 298.335 317.55V317.56ZM296.085 308.9C295.245 309.67 294.805 310.37 294.765 311C294.725 311.63 294.985 312.25 295.545 312.87C296.135 313.51 296.745 313.83 297.365 313.83C297.985 313.83 298.725 313.43 299.575 312.65L303.495 309.06L300.035 305.29L296.095 308.9H296.085ZM302.305 319.13C302.865 319.74 303.435 320.02 304.025 319.96C304.605 319.9 305.275 319.53 306.015 318.85L309.525 315.64L306.395 312.23L302.795 315.53C301.425 316.79 301.265 317.99 302.315 319.13H302.305Z" fill="#F6F6F6"/>
<path d="M284.595 312.72L298.475 331.01L294.735 333.84L280.855 315.55L284.595 312.72Z" fill="#F6F6F6"/>
<path d="M276.765 345.64L272.765 348.08L260.805 328.48L265.425 325.66L282.305 334.19L278.575 328.9L273.575 320.7L277.575 318.26L289.535 337.86L284.945 340.66L268.035 332.15L271.765 337.44L276.765 345.65V345.64Z" fill="#F6F6F6"/>
<path d="M242.356 349.32L240.746 345.13L251.066 341.16L252.676 345.35L242.356 349.32Z" fill="#F6F6F6"/>
<path d="M212.304 367.96L206.974 368.92L202.914 346.32L207.534 345.49L210.444 361.7L215.024 351.05L215.444 350.97L223.414 359.37L220.504 343.16L225.124 342.33L229.184 364.93L223.894 365.88L216.524 358.24L212.304 367.96Z" fill="#F6F6F6"/>
<path d="M184.015 365.58L194.735 365.16L194.555 360.54L184.725 360.92L184.555 356.46L194.385 356.08L194.195 351.13L183.475 351.55L183.305 347.09L198.705 346.49L199.595 369.43L184.195 370.03L184.025 365.57L184.015 365.58Z" fill="#F6F6F6"/>
<path d="M170.866 360.32C169.216 359.84 167.896 359.38 166.896 358.95C165.896 358.52 164.996 358 164.186 357.4C163.376 356.8 162.826 356.09 162.526 355.28C162.226 354.47 162.126 353.5 162.216 352.39C162.316 351.13 162.676 350.03 163.286 349.1C163.896 348.17 164.666 347.48 165.586 347.03C166.506 346.58 167.466 346.26 168.456 346.08C169.446 345.9 170.456 345.849 171.476 345.929C174.596 346.179 176.906 347.11 178.406 348.71C179.916 350.31 180.716 352.239 180.826 354.479L176.116 354.1C175.886 352.9 175.396 351.99 174.636 351.38C173.886 350.77 172.726 350.4 171.156 350.28C169.846 350.18 168.836 350.319 168.106 350.729C167.386 351.129 166.986 351.75 166.926 352.58C166.886 353.1 167.046 353.54 167.396 353.88C167.746 354.22 168.196 354.5 168.726 354.69C169.256 354.89 170.206 355.189 171.576 355.609C171.686 355.639 171.766 355.659 171.816 355.679C171.866 355.689 171.946 355.72 172.036 355.75C172.136 355.78 172.226 355.81 172.306 355.84C173.466 356.17 174.436 356.519 175.216 356.859C175.996 357.209 176.766 357.659 177.506 358.229C178.246 358.789 178.796 359.479 179.136 360.299C179.476 361.119 179.606 362.07 179.516 363.16C179.336 365.43 178.346 367.12 176.536 368.25C174.736 369.38 172.656 369.85 170.306 369.66C167.426 369.43 165.296 368.59 163.906 367.16C162.516 365.73 161.766 363.95 161.656 361.83L166.396 362.21C166.816 364.09 168.226 365.119 170.626 365.309C171.956 365.419 172.966 365.249 173.656 364.809C174.346 364.369 174.726 363.759 174.786 362.979C174.836 362.349 174.596 361.87 174.066 361.54C173.536 361.21 172.456 360.81 170.826 360.33L170.866 360.32Z" fill="#F6F6F6"/>
<path d="M137.723 339.86L141.243 349.41L143.743 350.1L145.943 342.13L150.463 343.38L144.343 365.51L134.823 362.88C132.463 362.23 130.793 361.07 129.813 359.4C128.833 357.73 128.653 355.79 129.263 353.58C129.753 351.81 130.583 350.49 131.753 349.61C132.923 348.73 134.353 348.31 136.053 348.35L132.153 338.32L137.713 339.86H137.723ZM141.013 359.96L142.643 354.05L138.153 352.81C136.993 352.49 136.053 352.51 135.333 352.86C134.613 353.22 134.123 353.86 133.863 354.79C133.603 355.72 133.703 356.53 134.143 357.22C134.583 357.91 135.383 358.41 136.513 358.73L141.003 359.97L141.013 359.96Z" fill="#F6F6F6"/>
<path d="M108.313 348.39L118.213 352.52L119.993 348.25L110.913 344.46L112.633 340.34L121.713 344.13L123.623 339.56L113.723 335.43L115.443 331.31L129.673 337.24L120.843 358.43L106.613 352.5L108.333 348.38L108.313 348.39Z" fill="#F6F6F6"/>
<path d="M98.5957 338.06C97.3057 336.93 96.2957 335.95 95.5757 335.14C94.8557 334.33 94.2557 333.48 93.7757 332.59C93.2957 331.7 93.0957 330.83 93.1757 329.97C93.2457 329.11 93.5657 328.19 94.1157 327.22C94.7457 326.12 95.5257 325.27 96.4757 324.69C97.4257 324.11 98.4057 323.81 99.4357 323.79C100.466 323.77 101.466 323.89 102.446 324.14C103.426 324.39 104.356 324.77 105.246 325.28C107.966 326.82 109.666 328.64 110.356 330.73C111.046 332.82 110.966 334.9 110.106 336.98L105.996 334.65C106.296 333.46 106.226 332.43 105.806 331.56C105.386 330.69 104.486 329.87 103.116 329.09C101.976 328.44 100.996 328.15 100.166 328.21C99.3357 328.27 98.7257 328.66 98.3157 329.38C98.0557 329.84 98.0157 330.3 98.1957 330.76C98.3757 331.22 98.6557 331.66 99.0557 332.06C99.4557 332.46 100.186 333.14 101.256 334.1C101.336 334.17 101.406 334.23 101.446 334.26C101.486 334.3 101.546 334.35 101.626 334.42C101.706 334.49 101.776 334.55 101.836 334.62C102.746 335.41 103.476 336.13 104.046 336.78C104.606 337.43 105.106 338.16 105.546 338.99C105.986 339.82 106.186 340.67 106.146 341.56C106.106 342.44 105.826 343.36 105.286 344.31C104.166 346.29 102.546 347.41 100.436 347.67C98.3257 347.93 96.2457 347.48 94.1957 346.31C91.6857 344.89 90.1057 343.23 89.4557 341.34C88.8057 339.45 88.8757 337.52 89.6657 335.56L93.8057 337.91C93.3957 339.79 94.2357 341.32 96.3257 342.51C97.4857 343.17 98.4757 343.45 99.2857 343.34C100.096 343.24 100.696 342.84 101.086 342.16C101.396 341.61 101.386 341.07 101.036 340.55C100.696 340.03 99.8857 339.2 98.6057 338.08L98.5957 338.06Z" fill="#F6F6F6"/>
<path d="M71.5936 325.25L80.2136 331.63L82.9636 327.91L75.0536 322.06L77.7036 318.47L85.6136 324.32L88.5536 320.34L79.9336 313.96L82.5836 310.37L94.9836 319.54L81.3336 338L68.9336 328.83L71.5836 325.24L71.5936 325.25Z" fill="#F6F6F6"/>
<path d="M68.2953 296.99L65.9253 302.23L72.6053 308.68L77.7853 306.15L81.3453 309.59L59.2153 320.13L54.9453 316.01L64.7153 293.53L68.3053 296.99H68.2953ZM68.3453 310.77L64.0053 306.58L60.3853 314.67L68.3453 310.77Z" fill="#F6F6F6"/>
<path d="M37.3033 295.73L34.3633 291.99L45.1033 283.52C47.5633 281.58 49.9833 280.79 52.3733 281.13C54.7633 281.48 56.8333 282.75 58.5733 284.97C60.3233 287.18 61.0833 289.49 60.8633 291.9C60.6433 294.3 59.3033 296.47 56.8433 298.41L46.1033 306.88L43.1633 303.14L53.7033 294.84C56.5733 292.58 57.0333 290.21 55.0833 287.74C53.1333 285.27 50.7233 285.16 47.8533 287.42L37.3133 295.72L37.3033 295.73Z" fill="#F6F6F6"/>
<path d="M40.6431 258.17L43.4831 263.01L39.0731 271.11H48.2531L51.0731 275.93L37.0531 275.57L31.0931 287.25L28.2731 282.44L32.3931 274.88L23.7731 274.77L20.9531 269.96L34.4331 270.37L40.6531 258.16L40.6431 258.17Z" fill="#F6F6F6"/>
<path d="M20.6758 240.74L24.8858 239.17L28.7458 249.53L24.5358 251.1L20.6758 240.74Z" fill="#F6F6F6"/>
<path d="M2.75328 213.2L1.86328 208.33L25.8133 211.67L26.8733 217.48L5.63328 228.99L4.74328 224.12L20.8933 215.58L2.76328 213.22L2.75328 213.2Z" fill="#F6F6F6"/>
<path d="M24.4731 201.32L1.59312 203.23L1.20312 198.56L24.0831 196.65L24.4731 201.32Z" fill="#F6F6F6"/>
<path d="M11.2744 182.37L11.5844 169.81L24.0444 170.12L23.9444 174.12L20.0744 174.02C21.3244 174.6 22.3344 175.58 23.0844 176.97C23.8344 178.36 24.1944 179.99 24.1444 181.87C24.0644 185.11 22.8744 187.79 20.5844 189.92C18.2944 192.05 15.4344 193.07 12.0244 192.99C8.5944 192.91 5.7744 191.71 3.5844 189.42C1.3844 187.12 0.334403 184.26 0.414403 180.83C0.484403 178.12 1.2744 175.78 2.8044 173.82C4.3344 171.86 6.2944 170.57 8.6944 169.95L8.5644 174.97C7.4344 175.49 6.5444 176.27 5.8944 177.32C5.2444 178.37 4.9044 179.59 4.8644 180.99C4.8144 183.11 5.4644 184.84 6.8344 186.19C8.2044 187.54 9.9844 188.24 12.1944 188.29C14.3344 188.34 16.1244 187.76 17.5744 186.54C19.0144 185.32 19.7644 183.61 19.8144 181.43C19.8544 179.83 19.4844 178.44 18.7044 177.23C17.9244 176.03 16.8144 175.21 15.3844 174.79L15.1944 182.5L11.2644 182.4L11.2744 182.37Z" fill="#F6F6F6"/>
<path d="M24.8538 165.96L2.09375 162.9L2.72375 158.25L25.4737 161.31L24.8538 165.96Z" fill="#F6F6F6"/>
<path d="M11.3845 137.78L9.04453 148.25L13.5545 149.26L15.7045 139.66L20.0545 140.63L17.9045 150.23L22.7345 151.31L25.0745 140.84L29.4245 141.81L26.0545 156.85L3.64453 151.83L7.01453 136.79L11.3645 137.76L11.3845 137.78Z" fill="#F6F6F6"/>
<path d="M34.8339 126.21L25.0439 128.98L24.1639 131.42L31.9339 134.23L30.3439 138.64L8.75391 130.83L12.1139 121.54C12.9439 119.24 14.2339 117.66 15.9639 116.81C17.6939 115.96 19.6539 115.93 21.8039 116.71C23.5339 117.33 24.7839 118.26 25.5739 119.5C26.3639 120.74 26.6639 122.2 26.5039 123.88L36.8039 120.77L34.8439 126.2L34.8339 126.21ZM14.5339 127.94L20.3039 130.03L21.8839 125.65C22.2939 124.52 22.3439 123.58 22.0439 122.83C21.7439 122.08 21.1439 121.54 20.2339 121.22C19.3339 120.89 18.5139 120.93 17.7939 121.31C17.0739 121.69 16.5139 122.45 16.1039 123.56L14.5239 127.94H14.5339Z" fill="#F6F6F6"/>
<path d="M48.9761 98.5197L38.8361 99.3597L37.5061 101.58L44.5961 105.83L42.1861 109.85L22.4961 98.0297L27.5761 89.5597C28.8361 87.4597 30.3961 86.1597 32.2661 85.6597C34.1361 85.1597 36.0561 85.4997 38.0161 86.6797C39.5861 87.6297 40.6461 88.7797 41.1761 90.1497C41.7061 91.5197 41.7361 93.0097 41.2461 94.6297L51.9561 93.5597L48.9861 98.5097L48.9761 98.5197ZM28.7261 96.3097L33.9861 99.4697L36.3861 95.4797C37.0061 94.4497 37.2361 93.5397 37.0861 92.7497C36.9361 91.9597 36.4461 91.3197 35.6261 90.8197C34.8061 90.3197 33.9961 90.1997 33.2161 90.4397C32.4361 90.6797 31.7361 91.3097 31.1261 92.3197L28.7261 96.3097Z" fill="#F6F6F6"/>
<path d="M38.9457 77.6796C38.6257 74.4696 39.5257 71.5496 41.6657 68.9196C43.8057 66.2896 46.4757 64.7996 49.6857 64.4496C52.8957 64.0996 55.8157 64.9896 58.4257 67.1096C61.0357 69.2296 62.5057 71.8996 62.8257 75.1196C63.1457 78.3396 62.2357 81.2596 60.0957 83.8896C57.9557 86.5196 55.2857 88.0096 52.0857 88.3496C48.8757 88.6896 45.9657 87.7996 43.3557 85.6796C40.7457 83.5596 39.2757 80.8896 38.9457 77.6796ZM50.0157 69.0496C48.0657 69.2296 46.4357 70.1196 45.1257 71.7396C43.8157 73.3496 43.2757 75.1296 43.4957 77.0696C43.7157 79.0096 44.6657 80.6596 46.3257 82.0096C47.9857 83.3596 49.7957 83.9496 51.7457 83.7696C53.6957 83.5896 55.3257 82.6996 56.6357 81.0796C57.9457 79.4696 58.4857 77.6896 58.2657 75.7496C58.0457 73.8096 57.0957 72.1596 55.4357 70.8096C53.7757 69.4596 51.9657 68.8696 50.0157 69.0496Z" fill="#F6F6F6"/>
<path d="M71.8041 53.47C72.9541 52.95 74.1041 52.85 75.2441 53.18C76.3841 53.51 77.4241 54.19 78.3741 55.22C79.7841 56.75 80.3741 58.41 80.1441 60.21C79.9141 62.01 78.9241 63.72 77.1741 65.33L69.7241 72.2L54.1641 55.31L61.5741 48.49C63.1641 47.02 64.7741 46.24 66.3941 46.15C68.0141 46.05 69.4741 46.71 70.7841 48.13C72.2241 49.69 72.5641 51.47 71.8241 53.46L71.8041 53.47ZM67.8241 51.91C67.2641 51.3 66.6841 51.02 66.1041 51.09C65.5241 51.15 64.8641 51.52 64.1241 52.2L60.6241 55.42L63.7541 58.82L67.3441 55.51C68.7141 54.25 68.8641 53.05 67.8141 51.91H67.8241ZM74.0641 62.12C74.9041 61.35 75.3441 60.65 75.3841 60.01C75.4241 59.37 75.1641 58.76 74.6041 58.14C74.0141 57.5 73.4041 57.18 72.7841 57.18C72.1641 57.18 71.4241 57.58 70.5741 58.37L66.6641 61.97L70.1341 65.73L74.0641 62.11V62.12Z" fill="#F6F6F6"/>
<path d="M85.5528 58.2797L71.6328 40.0197L75.3628 37.1797L89.2828 55.4397L85.5528 58.2797Z" fill="#F6F6F6"/>
<path d="M93.3047 25.3499L97.3047 22.8999L109.305 42.4699L104.695 45.2999L87.7947 36.8099L91.5347 42.0999L96.5547 50.2899L92.5547 52.7399L80.5547 33.1699L85.1447 30.3599L102.075 38.8299L98.3347 33.5399L93.3147 25.3499H93.3047Z" fill="#F6F6F6"/>
<path d="M127.705 21.5898L129.325 25.7798L119.015 29.7798L117.395 25.5898L127.705 21.5898Z" fill="#F6F6F6"/>
</svg>
