<svg width="376" height="376" viewBox="0 0 376 376" fill="none" xmlns="http://www.w3.org/2000/svg">
<path d="M143.588 5.01008L151.058 3.74008L159.388 19.4001L162.178 1.84008L169.608 0.580078L174.008 26.4601L169.608 27.2101L166.118 6.73008L163.388 23.5501L156.918 24.6501L148.928 9.65008L152.418 30.1301L147.978 30.8801L143.578 5.00008L143.588 5.01008Z" fill="#1E1E1E"/>
<path d="M176.047 0.3L194.607 0L194.677 4.31L180.507 4.54L180.667 14.06L191.057 13.89L191.127 18.2L180.737 18.37L180.797 22.16L194.967 21.93L195.037 26.24L176.477 26.54L176.047 0.29V0.3Z" fill="#1E1E1E"/>
<path d="M198.009 16.47L202.329 16.96V17.37C202.279 19.05 202.639 20.42 203.379 21.49C204.129 22.55 205.429 23.19 207.299 23.4C207.999 23.48 208.659 23.5 209.289 23.45C209.919 23.41 210.489 23.28 210.969 23.07C211.449 22.86 211.859 22.56 212.189 22.15C212.509 21.75 212.709 21.22 212.779 20.58C212.829 20.11 212.819 19.66 212.729 19.23C212.639 18.81 212.439 18.42 212.119 18.09C211.499 17.37 210.679 16.78 209.659 16.32C208.639 15.87 207.639 15.47 206.639 15.13C205.429 14.72 204.289 14.2 203.229 13.58C202.219 12.96 201.379 12.15 200.709 11.14C200.299 10.54 200.059 9.88999 199.999 9.18999C199.939 8.48999 199.949 7.82999 200.019 7.20999C200.149 6.01999 200.499 4.99999 201.039 4.15999C201.589 3.31999 202.289 2.63999 203.139 2.12999C203.989 1.61999 204.949 1.27999 206.029 1.09999C207.109 0.919993 208.239 0.899992 209.429 1.02999C212.189 1.33999 214.279 2.27999 215.699 3.84999C217.119 5.41999 217.749 7.47999 217.589 10.03V10.44L213.259 9.94999L213.219 9.60999C213.139 8.31999 212.779 7.31999 212.139 6.59999C211.499 5.88999 210.479 5.44999 209.059 5.28999C208.509 5.22999 207.969 5.21999 207.439 5.25999C206.909 5.29999 206.429 5.40999 206.009 5.58999C205.589 5.76999 205.239 6.01999 204.959 6.33999C204.679 6.65999 204.519 7.07999 204.459 7.59999C204.399 8.16999 204.509 8.65999 204.799 9.06999C205.089 9.47999 205.529 9.85999 206.129 10.2C206.439 10.39 206.759 10.56 207.109 10.73C207.459 10.89 207.819 11.06 208.199 11.23C208.609 11.4 209.019 11.56 209.449 11.71C209.869 11.86 210.299 12.02 210.739 12.2C211.579 12.55 212.419 12.95 213.259 13.41C214.099 13.87 214.839 14.43 215.479 15.1C216.119 15.76 216.609 16.54 216.949 17.44C217.289 18.33 217.389 19.4 217.249 20.64C217.209 21.01 217.129 21.39 217.029 21.78C216.919 22.17 216.809 22.55 216.689 22.91C216.289 24 215.699 24.9 214.929 25.62C214.159 26.34 213.219 26.91 212.109 27.34C211.289 27.65 210.459 27.81 209.619 27.83C208.769 27.85 207.949 27.81 207.159 27.72C205.049 27.48 203.179 26.86 201.559 25.84C199.939 24.82 198.809 23.33 198.179 21.34C197.939 20.56 197.819 19.81 197.809 19.09C197.809 18.37 197.839 17.64 197.929 16.89L197.979 16.44L198.009 16.47Z" fill="#1E1E1E"/>
<path d="M235.318 5.89012L243.747 8.45012C244.797 8.77012 245.697 9.26012 246.438 9.92012C247.178 10.5801 247.757 11.3301 248.167 12.1701C248.577 13.0101 248.818 13.9101 248.898 14.8601C248.978 15.8101 248.877 16.7301 248.607 17.6101C248.357 18.4501 247.968 19.2101 247.458 19.9101C246.948 20.6001 246.298 21.2001 245.528 21.6901L247.107 22.1701L243.107 35.6901L238.878 34.4001L242.117 23.3501L235.268 21.2601L231.917 32.2701L227.688 30.9801L235.328 5.87012L235.318 5.89012ZM240.717 18.4301C241.557 18.6801 242.327 18.6001 243.047 18.1801C243.767 17.7601 244.247 17.1501 244.487 16.3601C244.727 15.5701 244.667 14.8001 244.307 14.0501C243.947 13.3001 243.348 12.8001 242.508 12.5401L238.307 11.2601L236.518 17.1401L240.717 18.4201V18.4301Z" fill="#1E1E1E"/>
<path d="M256.207 12.5601L273.167 20.1001L271.417 24.0401L258.467 18.2801L254.597 26.9801L264.087 31.2001L262.337 35.1401L252.847 30.9201L251.307 34.3801L264.257 40.1401L262.507 44.0801L245.547 36.5401L256.217 12.5601H256.207Z" fill="#1E1E1E"/>
<path d="M269.338 36.49L273.048 38.76L272.868 39.13C272.118 40.64 271.858 42.03 272.088 43.31C272.318 44.59 273.228 45.72 274.828 46.7C275.428 47.07 276.018 47.36 276.608 47.59C277.198 47.82 277.758 47.94 278.298 47.96C278.838 47.98 279.328 47.87 279.788 47.64C280.248 47.41 280.648 47.02 280.988 46.46C281.238 46.05 281.408 45.64 281.508 45.22C281.608 44.8 281.588 44.36 281.438 43.93C281.178 43.01 280.688 42.13 279.958 41.29C279.228 40.45 278.488 39.66 277.728 38.94C276.808 38.05 275.998 37.1 275.298 36.09C274.638 35.1 274.228 34.01 274.048 32.82C273.928 32.1 273.988 31.41 274.238 30.76C274.488 30.11 274.768 29.51 275.088 28.97C275.718 27.95 276.458 27.17 277.308 26.64C278.158 26.11 279.078 25.79 280.068 25.69C281.058 25.59 282.068 25.69 283.128 25.98C284.188 26.27 285.218 26.73 286.238 27.36C288.608 28.81 290.098 30.54 290.718 32.57C291.338 34.6 291.038 36.72 289.818 38.96L289.638 39.33L285.928 37.06L286.038 36.73C286.508 35.53 286.608 34.47 286.338 33.55C286.068 32.63 285.318 31.8 284.098 31.06C283.628 30.77 283.148 30.54 282.648 30.35C282.148 30.16 281.668 30.06 281.208 30.04C280.748 30.02 280.328 30.1 279.938 30.28C279.548 30.45 279.218 30.77 278.948 31.21C278.648 31.7 278.548 32.19 278.638 32.69C278.728 33.19 278.968 33.71 279.358 34.28C279.558 34.58 279.778 34.87 280.018 35.17C280.258 35.47 280.518 35.77 280.798 36.09C281.098 36.42 281.408 36.74 281.728 37.05C282.048 37.36 282.368 37.69 282.688 38.03C283.308 38.7 283.898 39.42 284.468 40.19C285.038 40.96 285.468 41.79 285.768 42.66C286.068 43.53 286.188 44.45 286.108 45.4C286.038 46.35 285.678 47.36 285.028 48.43C284.828 48.75 284.598 49.06 284.338 49.37C284.078 49.68 283.818 49.97 283.558 50.25C282.738 51.07 281.828 51.64 280.818 51.96C279.818 52.28 278.718 52.41 277.538 52.33C276.668 52.27 275.848 52.06 275.078 51.72C274.308 51.38 273.578 51 272.898 50.58C271.088 49.47 269.658 48.11 268.618 46.51C267.578 44.91 267.188 43.07 267.458 41.01C267.568 40.2 267.778 39.47 268.078 38.82C268.378 38.17 268.718 37.52 269.108 36.88L269.348 36.5L269.338 36.49Z" fill="#1E1E1E"/>
<path d="M299.117 36.04L313.557 47.7L310.847 51.06L299.817 42.15L293.827 49.56L301.907 56.09L299.197 59.44L291.117 52.91L288.737 55.86L299.767 64.77L297.057 68.13L282.617 56.46L299.117 36.04Z" fill="#1E1E1E"/>
<path d="M321.796 55.8L327.216 61.51L313.106 84.77L309.936 81.42L314.286 74.24L308.376 68.01L301.006 72.01L297.836 68.66L321.806 55.79L321.796 55.8ZM316.606 70.44L321.736 62.01L320.986 61.22L312.326 65.93L316.606 70.45V70.44Z" fill="#1E1E1E"/>
<path d="M335.128 70.4902L337.718 74.0802L319.938 86.9302L325.648 94.8302L343.428 81.9802L345.998 85.5402L324.718 100.91L313.848 85.8602L335.128 70.4902Z" fill="#1E1E1E"/>
<path d="M340.918 102.76L348.648 89.6001L351.038 94.0201L345.668 103.1L356.168 103.53L358.538 107.92L343.258 107.17L335.488 120.48L333.098 116.06L338.518 106.92L327.878 106.4L325.488 101.98L340.918 102.77V102.76Z" fill="#1E1E1E"/>
<path d="M352.196 127.04L354.966 135.09L350.926 136.48L348.156 128.43L352.196 127.04Z" fill="#1E1E1E"/>
<path d="M371.659 145.83L372.419 150.38L351.769 159.91L351.939 160.95L374.559 163.22L375.319 167.77L348.249 165.02L346.949 157.22L371.659 145.84V145.83Z" fill="#1E1E1E"/>
<path d="M353.456 172.1L353.646 175.17L371.236 174.08L371.046 171.01L375.346 170.74L376.006 181.29L371.706 181.56L371.516 178.45L353.926 179.54L354.116 182.65L349.816 182.92L349.156 172.37L353.456 172.1Z" fill="#1E1E1E"/>
<path d="M361.926 197.17L361.176 210.54L348.816 209.84L349.056 205.61L354.376 205.91L354.406 205.46C353.906 205.38 353.506 205.28 353.206 205.15C352.896 205.02 352.546 204.79 352.136 204.47C350.966 203.53 350.156 202.42 349.726 201.16C349.296 199.9 349.126 198.49 349.216 196.94C349.326 194.97 349.816 193.21 350.676 191.65C351.536 190.1 352.636 188.79 353.956 187.74C355.276 186.69 356.756 185.91 358.386 185.4C360.016 184.89 361.656 184.68 363.306 184.78C364.956 184.87 366.556 185.26 368.126 185.95C369.686 186.64 371.066 187.58 372.266 188.77C373.466 189.96 374.406 191.38 375.086 193.02C375.766 194.66 376.056 196.47 375.946 198.44C375.866 199.91 375.566 201.27 375.036 202.52C374.516 203.77 373.836 204.9 372.986 205.9C372.136 206.9 371.166 207.76 370.066 208.48C368.966 209.19 367.796 209.73 366.576 210.09L365.966 210.28L366.236 205.41L366.506 205.28C367.936 204.71 369.146 203.8 370.116 202.55C371.086 201.3 371.616 199.86 371.716 198.21C371.786 196.94 371.586 195.77 371.106 194.7C370.626 193.63 369.976 192.71 369.156 191.94C368.336 191.17 367.396 190.55 366.336 190.09C365.276 189.63 364.176 189.37 363.056 189.3C361.936 189.24 360.816 189.37 359.706 189.71C358.596 190.05 357.596 190.55 356.686 191.23C355.776 191.91 355.036 192.75 354.436 193.75C353.846 194.76 353.506 195.89 353.436 197.17C353.346 198.72 353.656 200.12 354.366 201.37C355.076 202.62 356.016 203.65 357.196 204.44L357.616 196.91L361.926 197.15V197.17Z" fill="#1E1E1E"/>
<path d="M352.469 211.9L351.929 214.93L369.279 218.02L369.819 214.99L374.069 215.75L372.209 226.16L367.959 225.4L368.509 222.34L351.159 219.25L350.609 222.31L346.359 221.55L348.219 211.14L352.469 211.9Z" fill="#1E1E1E"/>
<path d="M371.466 230.29L366.416 248.15L362.266 246.98L366.126 233.34L356.956 230.75L354.126 240.75L349.976 239.58L352.806 229.58L349.166 228.55L345.306 242.19L341.156 241.02L346.206 223.16L371.466 230.3V230.29Z" fill="#1E1E1E"/>
<path d="M364.516 253.29L361.096 261.41C360.666 262.42 360.096 263.27 359.366 263.94C358.636 264.61 357.826 265.1 356.946 265.42C356.066 265.74 355.146 265.89 354.196 265.87C353.246 265.85 352.336 265.66 351.486 265.3C350.676 264.96 349.956 264.5 349.316 263.92C348.676 263.34 348.156 262.64 347.746 261.81L347.106 263.33L334.066 257.96L335.786 253.88L346.436 258.25L349.216 251.65L338.606 247.18L340.326 243.1L364.516 253.29ZM351.486 257.37C351.146 258.18 351.146 258.96 351.486 259.71C351.836 260.47 352.386 261 353.146 261.32C353.906 261.64 354.676 261.66 355.456 261.38C356.236 261.1 356.796 260.56 357.136 259.75L358.836 255.71L353.166 253.32L351.466 257.36L351.486 257.37Z" fill="#1E1E1E"/>
<path d="M350.509 282.81L345.729 290.21C345.129 291.13 344.419 291.86 343.579 292.39C342.749 292.92 341.869 293.27 340.939 293.43C340.019 293.59 339.089 293.58 338.149 293.39C337.209 293.2 336.359 292.86 335.579 292.36C334.839 291.89 334.209 291.31 333.689 290.63C333.159 289.95 332.769 289.16 332.509 288.28L331.609 289.67L319.699 282.12L322.099 278.4L331.829 284.55L335.709 278.53L326.039 272.29L328.439 268.57L350.499 282.8L350.509 282.81ZM336.969 284.56C336.499 285.3 336.359 286.06 336.569 286.87C336.779 287.67 337.229 288.3 337.919 288.75C338.609 289.2 339.369 289.35 340.189 289.21C341.009 289.07 341.659 288.63 342.129 287.9L344.509 284.21L339.339 280.88L336.959 284.57L336.969 284.56Z" fill="#1E1E1E"/>
<path d="M310.048 293.6C311.328 292.13 312.788 291.04 314.418 290.34C316.048 289.64 317.718 289.28 319.408 289.26C321.098 289.24 322.748 289.52 324.358 290.11C325.968 290.7 327.398 291.53 328.638 292.62C329.878 293.7 330.908 295 331.718 296.51C332.528 298.02 333.038 299.62 333.248 301.29C333.458 302.96 333.338 304.66 332.868 306.38C332.398 308.1 331.528 309.69 330.248 311.16C328.948 312.65 327.488 313.74 325.848 314.44C324.218 315.14 322.548 315.5 320.858 315.52C319.168 315.54 317.518 315.26 315.908 314.67C314.298 314.08 312.868 313.25 311.628 312.17C310.378 311.09 309.358 309.79 308.548 308.28C307.738 306.77 307.228 305.17 307.018 303.5C306.808 301.83 306.928 300.13 307.398 298.41C307.858 296.69 308.748 295.09 310.038 293.6H310.048ZM313.248 296.38C312.408 297.34 311.858 298.39 311.578 299.53C311.308 300.66 311.248 301.79 311.418 302.92C311.588 304.04 311.948 305.11 312.518 306.11C313.088 307.11 313.788 307.99 314.638 308.73C315.488 309.47 316.458 310.05 317.538 310.48C318.618 310.91 319.728 311.13 320.868 311.14C321.998 311.14 323.108 310.93 324.188 310.5C325.268 310.06 326.218 309.36 327.058 308.4C327.898 307.44 328.448 306.4 328.728 305.28C329.008 304.16 329.058 303.04 328.888 301.92C328.718 300.8 328.348 299.73 327.778 298.71C327.198 297.7 326.488 296.82 325.638 296.08C324.788 295.34 323.828 294.76 322.748 294.34C321.678 293.92 320.568 293.7 319.438 293.69C318.308 293.68 317.198 293.89 316.118 294.31C315.038 294.73 314.078 295.42 313.248 296.38Z" fill="#1E1E1E"/>
<path d="M317.13 324.69L310.46 330.45C309.63 331.17 308.739 331.67 307.789 331.94C306.839 332.22 305.899 332.3 304.969 332.2C304.039 332.1 303.149 331.82 302.299 331.38C301.459 330.94 300.73 330.37 300.13 329.67C299.56 329.01 299.109 328.27 298.799 327.47C298.489 326.67 298.33 325.8 298.32 324.88L297.07 325.96L287.77 315.37L299.969 304.83L317.14 324.69H317.13ZM293.96 315.72L298.719 321.12L304.14 316.44L299.43 310.99L293.95 315.72H293.96ZM303.64 322.57C302.98 323.14 302.629 323.84 302.609 324.68C302.579 325.51 302.84 326.24 303.38 326.86C303.64 327.16 303.95 327.41 304.31 327.59C304.67 327.77 305.039 327.89 305.419 327.92C305.799 327.96 306.18 327.92 306.57 327.82C306.96 327.72 307.31 327.52 307.63 327.25L310.979 324.36L306.96 319.71L303.64 322.58V322.57Z" fill="#1E1E1E"/>
<path d="M288.969 319.75L286.469 321.54L296.719 335.88L299.219 334.09L301.729 337.6L293.129 343.75L290.619 340.24L293.149 338.43L282.899 324.09L280.369 325.9L277.859 322.39L286.459 316.24L288.969 319.75Z" fill="#1E1E1E"/>
<path d="M289.687 346.22L282.977 350.05L265.857 334.52L265.827 334.54L276.727 353.62L272.887 355.81L259.867 333.01L266.547 329.2L283.657 344.65L283.687 344.63L272.827 325.61L276.667 323.42L289.687 346.22Z" fill="#1E1E1E"/>
<path d="M252.669 350.43L244.679 353.38L243.199 349.37L251.189 346.42L252.669 350.43Z" fill="#1E1E1E"/>
<path d="M232.787 370.8L225.317 372.06L217.007 356.39L214.187 373.94L206.757 375.19L202.387 349.31L206.787 348.57L210.247 369.05L212.997 352.23L219.467 351.14L227.437 366.15L223.977 345.66L228.417 344.91L232.787 370.79V370.8Z" fill="#1E1E1E"/>
<path d="M200.316 375.46L181.756 375.76L181.686 371.45L195.856 371.22L195.706 361.7L185.316 361.87L185.246 357.56L195.636 357.39L195.576 353.6L181.406 353.83L181.336 349.52L199.896 349.22L200.326 375.47L200.316 375.46Z" fill="#1E1E1E"/>
<path d="M178.357 359.27L174.037 358.78V358.37C174.087 356.69 173.737 355.32 172.987 354.25C172.237 353.18 170.937 352.54 169.077 352.33C168.387 352.25 167.717 352.23 167.087 352.27C166.457 352.31 165.897 352.44 165.407 352.64C164.917 352.85 164.517 353.15 164.187 353.56C163.867 353.96 163.667 354.49 163.597 355.13C163.547 355.6 163.557 356.05 163.647 356.48C163.737 356.9 163.937 357.29 164.257 357.62C164.877 358.35 165.697 358.94 166.717 359.39C167.737 359.85 168.737 360.24 169.727 360.58C170.937 361 172.077 361.51 173.137 362.14C174.147 362.76 174.987 363.57 175.647 364.58C176.057 365.18 176.287 365.83 176.347 366.53C176.407 367.23 176.397 367.89 176.327 368.51C176.187 369.7 175.847 370.72 175.297 371.56C174.747 372.4 174.047 373.08 173.197 373.58C172.347 374.09 171.387 374.43 170.307 374.61C169.227 374.79 168.097 374.81 166.907 374.67C164.147 374.36 162.067 373.41 160.647 371.84C159.227 370.27 158.607 368.21 158.767 365.66V365.25L163.097 365.74L163.137 366.08C163.217 367.37 163.577 368.38 164.207 369.09C164.837 369.8 165.867 370.24 167.287 370.4C167.837 370.46 168.377 370.47 168.907 370.43C169.437 370.39 169.917 370.28 170.337 370.1C170.757 369.92 171.107 369.67 171.387 369.35C171.667 369.03 171.827 368.61 171.887 368.09C171.957 367.52 171.837 367.03 171.547 366.62C171.257 366.21 170.817 365.83 170.227 365.49C169.927 365.3 169.597 365.13 169.247 364.96C168.897 364.79 168.537 364.63 168.157 364.46C167.747 364.29 167.337 364.13 166.907 363.98C166.487 363.83 166.057 363.67 165.627 363.49C164.787 363.14 163.947 362.74 163.107 362.28C162.267 361.82 161.527 361.26 160.887 360.59C160.247 359.93 159.757 359.15 159.417 358.25C159.077 357.36 158.977 356.29 159.127 355.05C159.167 354.68 159.247 354.3 159.357 353.91C159.467 353.52 159.577 353.14 159.697 352.78C160.097 351.69 160.687 350.79 161.457 350.07C162.227 349.35 163.167 348.78 164.277 348.35C165.097 348.04 165.927 347.88 166.767 347.86C167.617 347.84 168.437 347.88 169.227 347.97C171.337 348.21 173.207 348.84 174.827 349.86C176.447 350.88 177.577 352.38 178.197 354.36C178.437 355.14 178.557 355.89 178.567 356.61C178.567 357.33 178.537 358.06 178.447 358.81L178.397 359.26L178.357 359.27Z" fill="#1E1E1E"/>
<path d="M141.036 369.8L132.606 367.22C131.556 366.9 130.656 366.41 129.916 365.75C129.176 365.09 128.606 364.34 128.196 363.5C127.786 362.66 127.546 361.76 127.476 360.81C127.396 359.86 127.496 358.94 127.766 358.06C128.026 357.22 128.406 356.46 128.916 355.77C129.426 355.08 130.076 354.48 130.856 353.99L129.276 353.51L133.296 339.99L137.526 341.28L134.266 352.32L141.116 354.41L144.486 343.4L148.716 344.69L141.046 369.79L141.036 369.8ZM135.656 357.25C134.816 356.99 134.046 357.08 133.326 357.5C132.606 357.92 132.126 358.53 131.886 359.32C131.646 360.11 131.706 360.88 132.066 361.63C132.426 362.38 133.026 362.88 133.856 363.14L138.056 364.42L139.856 358.54L135.656 357.26V357.25Z" fill="#1E1E1E"/>
<path d="M120.157 363.11L103.207 355.54L104.967 351.6L117.907 357.38L121.787 348.68L112.297 344.45L114.057 340.51L123.547 344.74L125.087 341.28L112.147 335.5L113.907 331.56L130.857 339.13L120.157 363.1V363.11Z" fill="#1E1E1E"/>
<path d="M107.066 339.16L103.356 336.88L103.536 336.51C104.286 335 104.546 333.61 104.326 332.33C104.106 331.05 103.186 329.92 101.596 328.94C100.996 328.57 100.406 328.27 99.8158 328.04C99.2258 327.81 98.6658 327.68 98.1358 327.66C97.6058 327.64 97.1058 327.75 96.6458 327.98C96.1858 328.21 95.7758 328.6 95.4358 329.15C95.1858 329.55 95.0158 329.97 94.9158 330.39C94.8158 330.81 94.8358 331.24 94.9758 331.68C95.2358 332.6 95.7258 333.48 96.4558 334.33C97.1858 335.17 97.9258 335.96 98.6858 336.69C99.6058 337.58 100.416 338.53 101.116 339.55C101.776 340.54 102.186 341.63 102.366 342.82C102.486 343.54 102.416 344.22 102.176 344.88C101.936 345.54 101.646 346.13 101.326 346.67C100.696 347.69 99.9558 348.47 99.1058 349C98.2558 349.53 97.3358 349.85 96.3458 349.95C95.3558 350.05 94.3458 349.95 93.2858 349.66C92.2358 349.37 91.1958 348.91 90.1758 348.28C87.8058 346.83 86.3158 345.09 85.6958 343.07C85.0758 341.05 85.3758 338.92 86.6058 336.68L86.7858 336.31L90.4958 338.59L90.3858 338.92C89.9058 340.12 89.8058 341.18 90.0858 342.1C90.3658 343.02 91.1058 343.85 92.3158 344.59C92.7858 344.88 93.2658 345.12 93.7658 345.31C94.2658 345.5 94.7458 345.6 95.2058 345.62C95.6658 345.64 96.0858 345.56 96.4758 345.39C96.8658 345.22 97.1958 344.9 97.4658 344.46C97.7658 343.97 97.8758 343.48 97.7758 342.98C97.6758 342.48 97.4458 341.95 97.0558 341.39C96.8558 341.09 96.6358 340.8 96.3958 340.5C96.1558 340.2 95.8958 339.9 95.6158 339.58C95.3158 339.25 95.0058 338.93 94.6858 338.62C94.3658 338.31 94.0458 337.98 93.7258 337.64C93.1158 336.97 92.5158 336.25 91.9558 335.47C91.3858 334.7 90.9558 333.87 90.6558 333C90.3558 332.13 90.2458 331.21 90.3158 330.26C90.3858 329.31 90.7458 328.3 91.4058 327.23C91.6058 326.91 91.8358 326.6 92.0958 326.29C92.3558 325.98 92.6158 325.69 92.8758 325.41C93.6958 324.6 94.6158 324.03 95.6158 323.7C96.6158 323.38 97.7158 323.26 98.8958 323.34C99.7658 323.4 100.586 323.61 101.356 323.95C102.126 324.29 102.856 324.67 103.536 325.09C105.346 326.2 106.776 327.56 107.806 329.17C108.846 330.78 109.226 332.61 108.956 334.67C108.836 335.48 108.636 336.21 108.336 336.86C108.036 337.51 107.696 338.16 107.296 338.8L107.056 339.18L107.066 339.16Z" fill="#1E1E1E"/>
<path d="M77.2794 339.58L62.8594 327.9L65.5694 324.55L76.5794 333.47L82.5794 326.07L74.5094 319.53L77.2194 316.18L85.2894 322.72L87.6694 319.78L76.6594 310.86L79.3694 307.51L93.7894 319.19L77.2694 339.59L77.2794 339.58Z" fill="#1E1E1E"/>
<path d="M54.6288 319.78L49.2188 314.06L63.3588 290.81L66.5288 294.16L62.1688 301.33L68.0688 307.57L75.4488 303.58L78.6188 306.93L54.6288 319.77V319.78ZM59.8388 305.15L54.6988 313.58L55.4488 314.37L64.1188 309.68L59.8388 305.16V305.15Z" fill="#1E1E1E"/>
<path d="M41.317 305.08L38.727 301.49L56.527 288.67L50.827 280.76L33.027 293.58L30.457 290.02L51.757 274.68L62.607 289.74L41.307 305.08H41.317Z" fill="#1E1E1E"/>
<path d="M35.5788 272.8L27.8288 285.95L25.4488 281.52L30.8288 272.45L20.3288 272.01L17.9688 267.62L33.2388 268.39L41.0288 255.09L43.4088 259.52L37.9788 268.66L48.6188 269.2L50.9988 273.63L35.5688 272.81L35.5788 272.8Z" fill="#1E1E1E"/>
<path d="M24.3186 248.5L21.5586 240.45L25.5986 239.06L28.3586 247.11L24.3186 248.5Z" fill="#1E1E1E"/>
<path d="M4.89954 229.72L4.14954 225.17L24.8095 215.67L24.6395 214.63L2.01953 212.33L1.26953 207.78L28.3395 210.56L29.6295 218.37L4.89954 229.72Z" fill="#1E1E1E"/>
<path d="M23.1277 203.46L22.9377 200.39L5.34766 201.46L5.53766 204.53L1.23767 204.79L0.597656 194.23L4.89771 193.97L5.08771 197.08L22.6777 196.01L22.4877 192.9L26.7877 192.64L27.4277 203.19L23.1277 203.45V203.46Z" fill="#1E1E1E"/>
<path d="M14.6782 178.37L15.4482 165L27.7982 165.71L27.5582 169.94L22.2382 169.63L22.2082 170.08C22.7082 170.16 23.1082 170.26 23.4082 170.39C23.7182 170.52 24.0682 170.75 24.4782 171.07C25.6482 172.01 26.4482 173.12 26.8782 174.38C27.3082 175.64 27.4782 177.05 27.3882 178.6C27.2782 180.57 26.7882 182.33 25.9182 183.89C25.0482 185.45 23.9582 186.74 22.6282 187.79C21.3082 188.84 19.8282 189.62 18.1882 190.13C16.5582 190.64 14.9182 190.84 13.2682 190.75C11.6182 190.66 10.0182 190.26 8.45824 189.57C6.89824 188.88 5.51823 187.94 4.31823 186.74C3.11823 185.54 2.18822 184.12 1.49822 182.48C0.818218 180.84 0.538243 179.03 0.648243 177.06C0.728243 175.59 1.03822 174.23 1.55822 172.98C2.07822 171.73 2.7682 170.61 3.6082 169.6C4.4582 168.6 5.4282 167.74 6.5382 167.03C7.6482 166.32 8.80825 165.78 10.0282 165.43L10.6382 165.24L10.3582 170.11L10.0882 170.24C8.65825 170.81 7.4482 171.72 6.4782 172.96C5.5082 174.2 4.96822 175.65 4.87822 177.3C4.80822 178.57 5.00821 179.74 5.48821 180.81C5.96821 181.88 6.60821 182.8 7.42821 183.57C8.24821 184.34 9.18822 184.96 10.2482 185.42C11.3082 185.88 12.4082 186.14 13.5282 186.21C14.6482 186.27 15.7682 186.14 16.8782 185.8C17.9882 185.46 18.9882 184.96 19.8982 184.28C20.8082 183.6 21.5482 182.77 22.1482 181.76C22.7482 180.76 23.0782 179.62 23.1482 178.34C23.2382 176.79 22.9282 175.39 22.2282 174.14C21.5282 172.88 20.5782 171.86 19.3982 171.07L18.9682 178.59L14.6682 178.34L14.6782 178.37Z" fill="#1E1E1E"/>
<path d="M24.1564 163.67L24.6964 160.64L7.34637 157.53L6.8064 160.56L2.56641 159.8L4.4364 149.39L8.6864 150.15L8.13641 153.21L25.4864 156.32L26.0364 153.26L30.2864 154.02L28.4164 164.43L24.1664 163.67H24.1564Z" fill="#1E1E1E"/>
<path d="M5.19922 145.23L10.2692 127.38L14.4192 128.56L10.5392 142.19L19.6992 144.79L22.5392 134.8L26.6892 135.98L23.8492 145.97L27.4892 147.01L31.3692 133.38L35.5192 134.56L30.4492 152.42L5.19922 145.24V145.23Z" fill="#1E1E1E"/>
<path d="M12.1663 122.23L15.5963 114.11C16.0263 113.1 16.6063 112.26 17.3363 111.59C18.0663 110.92 18.8763 110.43 19.7563 110.11C20.6363 109.79 21.5563 109.64 22.5063 109.67C23.4563 109.69 24.3662 109.88 25.2162 110.24C26.0262 110.58 26.7463 111.04 27.3763 111.62C28.0163 112.2 28.5363 112.91 28.9463 113.73L29.5863 112.21L42.6163 117.6L40.8963 121.68L30.2463 117.3L27.4563 123.9L38.0563 128.38L36.3363 132.46L12.1562 122.24L12.1663 122.23ZM25.1963 118.17C25.5363 117.36 25.5363 116.58 25.1963 115.83C24.8463 115.07 24.2963 114.53 23.5363 114.21C22.7763 113.89 22.0063 113.87 21.2263 114.15C20.4463 114.43 19.8863 114.97 19.5363 115.78L17.8263 119.82L23.4963 122.21L25.2063 118.17H25.1963Z" fill="#1E1E1E"/>
<path d="M26.2188 92.7402L31.0088 85.3402C31.6088 84.4202 32.3188 83.6902 33.1588 83.1602C33.9988 82.6302 34.8688 82.2802 35.7988 82.1202C36.7188 81.9602 37.6488 81.9702 38.5888 82.1602C39.5288 82.3502 40.3788 82.6902 41.1588 83.2002C41.8988 83.6802 42.5288 84.2602 43.0488 84.9402C43.5788 85.6202 43.9688 86.4102 44.2288 87.2902L45.1288 85.9002L57.0288 93.4702L54.6288 97.1802L44.8988 91.0202L41.0088 97.0302L50.6788 103.28L48.2788 106.99L26.2388 92.7302L26.2188 92.7402ZM39.7588 91.0102C40.2388 90.2802 40.3688 89.5102 40.1588 88.7002C39.9488 87.8902 39.4988 87.2702 38.8088 86.8202C38.1188 86.3702 37.3588 86.2202 36.5388 86.3602C35.7188 86.5002 35.0688 86.9402 34.5988 87.6702L32.2188 91.3502L37.3788 94.6902L39.7588 91.0102Z" fill="#1E1E1E"/>
<path d="M66.6977 82C65.4177 83.47 63.9577 84.55 62.3177 85.25C60.6777 85.95 59.0177 86.3 57.3277 86.32C55.6377 86.34 53.9877 86.05 52.3777 85.46C50.7677 84.87 49.3477 84.03 48.0977 82.95C46.8577 81.87 45.8278 80.57 45.0278 79.05C44.2278 77.53 43.7177 75.94 43.5077 74.26C43.2977 72.58 43.4277 70.89 43.8877 69.17C44.3577 67.46 45.2277 65.86 46.5077 64.39C47.8077 62.9 49.2677 61.81 50.9077 61.11C52.5377 60.41 54.2077 60.06 55.8977 60.04C57.5877 60.02 59.2377 60.31 60.8477 60.9C62.4577 61.49 63.8777 62.33 65.1277 63.41C66.3777 64.49 67.3977 65.79 68.1977 67.31C68.9977 68.82 69.5077 70.42 69.7177 72.1C69.9277 73.78 69.7977 75.48 69.3377 77.19C68.8677 78.91 67.9877 80.51 66.6877 82H66.6977ZM63.5077 79.21C64.3477 78.25 64.8977 77.2 65.1777 76.07C65.4577 74.94 65.5077 73.81 65.3477 72.68C65.1877 71.55 64.8177 70.49 64.2477 69.49C63.6777 68.49 62.9777 67.61 62.1277 66.87C61.2777 66.13 60.3177 65.55 59.2277 65.11C58.1477 64.68 57.0377 64.46 55.8977 64.45C54.7677 64.44 53.6577 64.65 52.5777 65.09C51.4977 65.53 50.5377 66.23 49.7077 67.19C48.8777 68.15 48.3177 69.19 48.0377 70.31C47.7577 71.43 47.7077 72.55 47.8677 73.67C48.0277 74.79 48.4077 75.86 48.9777 76.88C49.5577 77.89 50.2677 78.77 51.1077 79.51C51.9477 80.25 52.9177 80.83 53.9877 81.25C55.0677 81.67 56.1677 81.89 57.2977 81.9C58.4277 81.91 59.5377 81.71 60.6177 81.29C61.6977 80.87 62.6577 80.18 63.4977 79.22L63.5077 79.21Z" fill="#1E1E1E"/>
<path d="M59.6484 50.9L66.3184 45.15C67.1484 44.43 68.0484 43.94 68.9984 43.66C69.9484 43.39 70.8884 43.3 71.8184 43.4C72.7484 43.5 73.6384 43.78 74.4884 44.22C75.3284 44.66 76.0584 45.24 76.6584 45.94C77.2284 46.6 77.6684 47.34 77.9884 48.14C78.2984 48.94 78.4584 49.81 78.4584 50.73L79.7084 49.65L88.9984 60.26L76.7884 70.79L59.6484 50.91V50.9ZM73.1284 53.04C73.7884 52.47 74.1384 51.77 74.1584 50.94C74.1884 50.11 73.9284 49.38 73.3884 48.76C73.1284 48.46 72.8184 48.21 72.4584 48.03C72.0984 47.84 71.7284 47.73 71.3484 47.7C70.9684 47.67 70.5884 47.7 70.1984 47.8C69.8084 47.9 69.4584 48.09 69.1284 48.37L65.7784 51.26L69.7884 55.92L73.1084 53.06L73.1284 53.04ZM82.8084 59.9L78.0484 54.5L72.6184 59.18L77.3184 64.63L82.7984 59.9H82.8084Z" fill="#1E1E1E"/>
<path d="M87.8081 55.8699L90.3081 54.0799L80.0781 39.7299L77.5781 41.5099L75.0781 37.9999L83.6881 31.8599L86.1881 35.3699L83.6581 37.1799L93.8881 51.5299L96.4181 49.7199L98.9181 53.2299L90.3081 59.3699L87.8081 55.8599V55.8699Z" fill="#1E1E1E"/>
<path d="M87.1289 29.3998L93.8389 25.5798L110.939 41.1298L110.969 41.1098L100.099 22.0098L103.949 19.8198L116.939 42.6298L110.259 46.4298L93.1689 30.9598L93.1389 30.9798L103.969 50.0098L100.119 52.1998L87.1289 29.3898V29.3998Z" fill="#1E1E1E"/>
<path d="M124.148 25.2501L132.138 22.3101L133.618 26.3201L125.628 29.2601L124.148 25.2501Z" fill="#1E1E1E"/>
</svg>
