<svg width="32" height="32" viewBox="0 0 32 32" fill="none" xmlns="http://www.w3.org/2000/svg">
<g clip-path="url(#clip0_379_321)">
<path d="M32 0H0V32H32V0Z" fill="black"/>
<path d="M19.5283 24.228H18.6665C18.6016 24.228 18.5491 24.2082 18.5093 24.1682C18.4692 24.1283 18.4492 24.076 18.4492 24.0112V19.477C18.4492 19.4123 18.4691 19.36 18.5093 19.3201C18.5495 19.2803 18.6016 19.2603 18.6665 19.2603H19.5133C19.5781 19.2603 19.6306 19.2803 19.6706 19.3201C19.7105 19.3601 19.7307 19.4124 19.7307 19.477L19.7456 24.0112C19.7456 24.076 19.7256 24.1283 19.6855 24.1682C19.6455 24.208 19.593 24.228 19.5283 24.228Z" fill="white"/>
<path d="M14.6621 7.81543H23.5323C23.5971 7.81543 23.6494 7.83544 23.6892 7.87529C23.7291 7.91531 23.7491 7.96762 23.7491 8.0324V18.4466C23.7491 18.5116 23.7291 18.5639 23.6892 18.6037C23.6494 18.6436 23.5969 18.6636 23.5323 18.6636L14.6621 18.656C14.5973 18.656 14.545 18.6373 14.5052 18.5999C14.4651 18.5625 14.4453 18.5089 14.4453 18.4389V8.03257C14.4453 7.9678 14.4651 7.91531 14.5052 7.87546C14.5452 7.83562 14.5973 7.81561 14.6621 7.81561V7.81543ZM22.4675 17.1655V9.31366C22.4675 9.24888 22.4475 9.19657 22.4076 9.15673C22.3676 9.11688 22.3153 9.09687 22.2505 9.09687H15.9437C15.8788 9.09687 15.8265 9.11688 15.7866 9.15673C15.7468 9.19657 15.7268 9.24906 15.7268 9.31366V17.1655C15.7268 17.2303 15.7466 17.2826 15.7866 17.3225C15.8265 17.3625 15.8789 17.3823 15.9437 17.3823H22.2505C22.3153 17.3823 22.3676 17.3625 22.4076 17.3225C22.4476 17.2824 22.4675 17.2303 22.4675 17.1655Z" fill="white"/>
<path d="M25.6857 23.9763C25.6857 24.041 25.6657 24.0933 25.6261 24.1332C25.586 24.1732 25.5337 24.1931 25.4691 24.1931H24.4907C24.431 24.1931 24.376 24.1681 24.3264 24.1183L22.235 21.7911C22.1404 21.6864 22.0607 21.634 21.9961 21.634C21.9015 21.634 21.8541 21.7339 21.8541 21.9332V24.0114C21.8541 24.0761 21.8341 24.1285 21.7942 24.1683C21.7544 24.2082 21.7017 24.2282 21.6367 24.2282H20.7899C20.725 24.2282 20.6725 24.2083 20.6327 24.1683C20.5926 24.1285 20.5726 24.0761 20.5726 24.0114V19.4596C20.5726 19.3949 20.5926 19.3425 20.6327 19.3027C20.6725 19.2629 20.725 19.2428 20.7899 19.2428H21.7605C21.8302 19.2428 21.8825 19.2653 21.9174 19.3101L24.0181 21.5747C24.1178 21.6793 24.1975 21.7316 24.2574 21.7316C24.352 21.7316 24.3994 21.6321 24.3994 21.4327V7.28439H7.57638V24.7155H21.7389C21.9208 24.7155 22.0949 24.7888 22.222 24.9189L22.8499 25.5617C22.9951 25.7102 22.9026 25.9669 22.6951 25.9788C22.6895 25.9792 22.6837 25.9793 22.6779 25.9793H6.60583C6.4438 25.9793 6.3125 25.848 6.3125 25.686V6.31383C6.3125 6.15181 6.4438 6.02051 6.60583 6.02051H25.3636C25.5256 6.02051 25.6569 6.15181 25.6569 6.31383V6.32279C25.6612 6.34122 25.6633 6.36088 25.6633 6.38194L25.6857 23.9763Z" fill="white"/>
<path d="M8.38901 16.3815H13.5701C13.7244 16.3815 13.8495 16.5067 13.8495 16.661V18.9983C13.8495 19.1526 13.9747 19.2777 14.129 19.2777H17.3791C17.5334 19.2777 17.6585 19.4029 17.6585 19.5572V23.9483C17.6585 24.1026 17.5334 24.2278 17.3791 24.2278H9.4203L8.39129 24.2369C8.23594 24.2383 8.10938 24.1128 8.10938 23.9575V16.6608C8.10938 16.5065 8.23453 16.3813 8.38883 16.3813L8.38901 16.3815ZM9.4261 18.0653V18.9983C9.4261 19.1526 9.55126 19.2777 9.70556 19.2777H12.2711C12.4254 19.2777 12.5505 19.1526 12.5505 18.9983V18.0653C12.5505 17.911 12.4254 17.7858 12.2711 17.7858H9.70556C9.55126 17.7858 9.4261 17.911 9.4261 18.0653ZM9.4261 20.9441V22.5442C9.4261 22.6985 9.55126 22.8236 9.70556 22.8236H16.0803C16.2346 22.8236 16.3597 22.6985 16.3597 22.5442V20.9441C16.3597 20.7898 16.2346 20.6647 16.0803 20.6647H9.70556C9.55126 20.6647 9.4261 20.7898 9.4261 20.9441Z" fill="white"/>
<path d="M8.46494 7.83301H13.5645C13.722 7.83301 13.8498 7.96063 13.8498 8.11826V13.8849C13.8498 14.0424 13.7222 14.1702 13.5645 14.1702H11.6206L12.2669 15.0902C12.3997 15.2792 12.2645 15.5394 12.0335 15.5394H11.1607C11.0656 15.5394 10.9767 15.492 10.9239 15.413L10.1752 14.2965C10.1222 14.2176 10.0334 14.1702 9.93842 14.1702H9.69389C9.53643 14.1702 9.40864 14.2978 9.40864 14.4554V15.2367C9.40864 15.3942 9.28102 15.522 9.12339 15.522H8.46494C8.30748 15.522 8.17969 15.3944 8.17969 15.2367V8.11826C8.17969 7.9608 8.3073 7.83301 8.46494 7.83301ZM12.6384 12.5682V9.43463C12.6384 9.27717 12.5108 9.14938 12.3531 9.14938H9.69354C9.53608 9.14938 9.40829 9.277 9.40829 9.43463V12.5682C9.40829 12.7256 9.53591 12.8534 9.69354 12.8534H12.3531C12.5106 12.8534 12.6384 12.7258 12.6384 12.5682Z" fill="white"/>
</g>
<defs>
<clipPath id="clip0_379_321">
<rect width="32" height="32" rx="2" fill="white"/>
</clipPath>
</defs>
</svg>
