<svg width="96" height="96" viewBox="0 0 96 96" fill="none" xmlns="http://www.w3.org/2000/svg">
<g clip-path="url(#clip0_332_332)">
<path fill-rule="evenodd" clip-rule="evenodd" d="M-0.00195312 41.7393C-0.00198235 40.7158 0.202565 39.6924 0.611689 38.707C1.54177 36.4669 4.02404 34.5241 8.98841 30.6388L8.98843 30.6388L8.98845 30.6387L8.98961 30.6378L33.8132 11.2108L33.8141 11.21C38.7787 7.32478 41.261 5.38209 44.1236 4.65419C46.6418 4.01387 49.3543 4.01387 51.8725 4.65419C54.7351 5.38214 57.2178 7.32504 62.1829 11.2108L87.0064 30.6378L87.0067 30.638C91.9717 34.5239 94.4541 36.4667 95.3843 38.707C95.7934 39.6924 95.9979 40.7158 95.9979 41.7393H95.998V54.2609C95.998 55.2843 95.7934 56.3077 95.3843 57.293C94.4541 59.5335 91.9716 61.4764 87.0064 65.3622L62.1829 84.7893C57.218 88.6751 54.7351 90.6179 51.8723 91.3459C49.3543 91.9862 46.6418 91.9862 44.1236 91.3459C41.261 90.618 38.7786 88.6753 33.814 84.79L33.8139 84.7899L33.8132 84.7893L8.98957 65.3622C4.0244 61.4764 1.54182 59.5335 0.611665 57.293L-0.00195312 54.2415V41.7393ZM33.17 24.7532C33.6352 25.8734 34.8764 26.8448 37.3591 28.7877L40.9052 31.5631L40.906 31.5637C43.3882 33.5062 44.6293 34.4774 46.0604 34.8413C47.3196 35.1615 48.6759 35.1615 49.9349 34.8413C51.3664 34.4774 52.6076 33.506 55.0901 31.5631L58.6364 28.7877C61.1191 26.8448 62.3603 25.8734 62.8253 24.7532C63.2345 23.7678 63.2345 22.7064 62.8253 21.721C62.3603 20.6009 61.1191 19.6294 58.6364 17.6865L55.0901 14.9112C52.6076 12.9683 51.3664 11.9969 49.9349 11.6329C48.6759 11.3127 47.3196 11.3127 46.0604 11.6329C44.6293 11.9968 43.3881 12.9681 40.9059 14.9106L40.9052 14.9112L37.3591 17.6865C34.8764 19.6294 33.6352 20.6009 33.17 21.721C32.761 22.7064 32.761 23.7678 33.17 24.7532ZM61.0015 47.2898C58.519 45.3469 57.2778 44.3755 56.8126 43.2552C56.4036 42.2699 56.4036 41.2084 56.8126 40.2231C57.2778 39.1029 58.519 38.1314 61.0015 36.1885L64.5478 33.4132L64.5486 33.4125L64.5488 33.4124C67.0308 31.47 68.2719 30.4988 69.703 30.135C70.9622 29.8147 72.3185 29.8147 73.5774 30.135C75.0087 30.4988 76.2502 31.4703 78.7327 33.4132L82.2789 36.1885L82.2806 36.1898C84.762 38.1318 86.003 39.1031 86.4679 40.2231C86.877 41.2084 86.877 42.2699 86.4679 43.2552C86.003 44.3752 84.762 45.3465 82.2806 47.2885L82.2789 47.2898L78.7327 50.0649C76.2502 52.0078 75.0087 52.9793 73.5774 53.3433C72.3185 53.6636 70.9622 53.6636 69.703 53.3433C68.2719 52.9793 67.0307 52.008 64.5486 50.0656L64.5478 50.0649L61.0015 47.2898ZM9.52947 43.2552C9.99456 44.3755 11.2358 45.3469 13.7184 47.2898L40.906 68.567L40.9069 68.5677C43.389 70.5101 44.6301 71.4814 46.0613 71.8454C47.3204 72.1654 48.6767 72.1654 49.9357 71.8454C51.3672 71.4813 52.6084 70.5099 55.0909 68.567L55.0909 68.567L58.6372 65.7916C61.1199 63.8488 62.3611 62.8773 62.8261 61.7571C63.2353 60.7717 63.2353 59.7105 62.8261 58.725C62.3611 57.6049 61.1199 56.6335 58.6372 54.6906L31.4494 33.4132L31.4494 33.4132C28.967 31.4703 27.7257 30.4988 26.2942 30.135C25.0352 29.8147 23.679 29.8147 22.42 30.135C20.9885 30.4988 19.7473 31.4703 17.2647 33.4131L17.2647 33.4132L13.7184 36.1885C11.2358 38.1314 9.99456 39.1029 9.52947 40.2231C9.12039 41.2084 9.12039 42.2699 9.52947 43.2552Z" fill="#1E1E1E"/>
</g>
<defs>
<clipPath id="clip0_332_332">
<rect width="96" height="96" fill="white" transform="translate(-0.00195312)"/>
</clipPath>
</defs>
</svg>
