<svg width="96" height="96" viewBox="0 0 96 96" fill="none" xmlns="http://www.w3.org/2000/svg">
<g clip-path="url(#clip0_332_330)">
<path d="M87.9971 26.0002H59.9974V18.0003H87.9971V26.0002ZM94.901 65.9998C93.133 71.1877 86.7851 77.9997 74.4972 77.9997C62.2014 77.9997 52.2415 71.0837 52.2415 55.2999C52.2415 39.6601 61.5414 31.6202 74.1052 31.6202C86.4331 31.6202 93.961 38.7481 95.605 49.324C95.917 51.3479 96.041 54.0759 95.985 57.8839H63.8774C64.3974 70.7277 77.8092 71.1317 82.2292 65.9998H94.901ZM64.1574 50H84.0171C83.5971 43.812 79.4732 41.1241 74.1092 41.1241C68.2453 41.1241 65.0014 44.196 64.1574 50ZM25.8618 77.9517H-0.00195312V18.0843H27.8097C49.7135 18.4083 50.1295 39.8601 38.6896 45.708C52.5335 50.748 52.9975 77.9517 25.8618 77.9517ZM11.9979 42H26.3338C36.3657 42 37.9576 30.0002 25.0858 30.0002H11.9979V42ZM25.5618 53.9999H11.9979V66.0638H25.3618C37.5816 66.0638 36.8336 53.9999 25.5618 53.9999Z" fill="#1E1E1E"/>
</g>
<defs>
<clipPath id="clip0_332_330">
<rect width="96" height="96" fill="white" transform="translate(-0.00195312)"/>
</clipPath>
</defs>
</svg>
