<svg width="96" height="96" viewBox="0 0 96 96" fill="none" xmlns="http://www.w3.org/2000/svg">
<g clip-path="url(#clip0_332_323)">
<path d="M86.1699 28.4164C86.2284 29.2627 86.2284 30.109 86.2284 30.9631C86.2284 56.9882 66.4161 87.0031 30.1884 87.0031V86.9875C19.4867 87.0031 9.00719 83.9376 -0.00195312 78.1578C1.55417 78.345 3.1181 78.4386 4.68592 78.4425C13.5547 78.4503 22.1699 75.4745 29.1471 69.9949C20.7191 69.835 13.3285 64.3398 10.7466 56.3174C13.699 56.8868 16.741 56.7698 19.6388 55.9781C10.4502 54.1217 3.83961 46.0485 3.83961 36.6728V36.4232C6.57745 37.9481 9.6429 38.7944 12.7785 38.888C4.12431 33.1042 1.45667 21.5913 6.68275 12.5899C16.6825 24.8946 31.4364 32.3749 47.2746 33.1667C45.6873 26.3259 47.8557 19.1576 52.9726 14.3489C60.9053 6.89194 73.3816 7.27414 80.8385 15.203C85.2495 14.3333 89.4771 12.7147 93.346 10.4215C91.8757 14.9807 88.7985 18.8534 84.6879 21.3144C88.5918 20.8542 92.4061 19.8089 95.998 18.2138C93.3538 22.1763 90.0232 25.6278 86.1699 28.4164Z" fill="#1E1E1E"/>
</g>
<defs>
<clipPath id="clip0_332_323">
<rect width="96" height="96" fill="white" transform="translate(-0.00195312)"/>
</clipPath>
</defs>
</svg>
