<svg width="96" height="96" viewBox="0 0 96 96" fill="none" xmlns="http://www.w3.org/2000/svg">
<g clip-path="url(#clip0_332_325)">
<path fill-rule="evenodd" clip-rule="evenodd" d="M85.3314 96H10.6647C4.77368 96 -0.00195312 91.2244 -0.00195312 85.3333V10.6667C-0.00195312 4.77563 4.77368 0 10.6647 0H85.3314C91.2224 0 95.998 4.77563 95.998 10.6667V85.3333C95.998 91.2244 91.2224 96 85.3314 96ZM68.4195 82.6667H82.6654V53.4016C82.6654 41.0193 75.6463 35.0323 65.8421 35.0323C56.0334 35.0323 51.9055 42.6706 51.9055 42.6706V36.4445H38.1765V82.6667H51.9055V58.4028C51.9055 51.9015 54.8982 48.0327 60.6263 48.0327C65.8918 48.0327 68.4195 51.7504 68.4195 58.4028V82.6667ZM13.332 21.8627C13.332 26.5729 17.1214 30.392 21.7978 30.392C26.4742 30.392 30.2614 26.5729 30.2614 21.8627C30.2614 17.1525 26.4742 13.3333 21.7978 13.3333C17.1214 13.3333 13.332 17.1525 13.332 21.8627ZM29.0246 82.6667H14.7088V36.4445H29.0246V82.6667Z" fill="#1E1E1E"/>
</g>
<defs>
<clipPath id="clip0_332_325">
<rect width="96" height="96" fill="white" transform="translate(-0.00195312)"/>
</clipPath>
</defs>
</svg>
