<?xml version="1.0" encoding="UTF-8"?>
<svg id="Calque_2" data-name="Calque 2" xmlns="http://www.w3.org/2000/svg" viewBox="0 0 1103.64 1137">
  <defs>
    <style>
      .cls-1 {
        fill: #fff;
      }
    </style>
  </defs>
  <g id="Calque_1-2" data-name="Calque 1">
    <g>
      <path class="cls-1" d="m752.84,1037.24h-49.09c-3.7,0-6.69-1.13-8.96-3.41-2.28-2.27-3.42-5.25-3.42-8.94v-258.3c0-3.69,1.13-6.67,3.42-8.94s5.26-3.41,8.96-3.41h48.24c3.69,0,6.68,1.14,8.96,3.41,2.27,2.28,3.42,5.26,3.42,8.94l.85,258.3c0,3.69-1.14,6.67-3.42,8.94s-5.27,3.41-8.96,3.41Z"/>
      <path class="cls-1" d="m475.71,102.24h505.31c3.69,0,6.67,1.14,8.94,3.41,2.27,2.28,3.41,5.26,3.41,8.95v593.27c0,3.7-1.14,6.68-3.41,8.95s-5.26,3.41-8.94,3.41l-505.31-.43c-3.69,0-6.67-1.07-8.94-3.2-2.28-2.13-3.41-5.18-3.41-9.17V114.61c0-3.69,1.13-6.68,3.41-8.95s5.25-3.41,8.94-3.41Zm444.65,532.65V187.59c0-3.69-1.14-6.67-3.41-8.94-2.28-2.27-5.26-3.41-8.95-3.41h-359.28c-3.7,0-6.68,1.14-8.95,3.41s-3.41,5.26-3.41,8.94v447.3c0,3.69,1.13,6.67,3.41,8.94,2.27,2.28,5.26,3.41,8.95,3.41h359.28c3.69,0,6.67-1.13,8.95-3.41s3.41-5.25,3.41-8.94Z"/>
      <path class="cls-1" d="m1103.64,1022.89c0,3.69-1.14,6.67-3.4,8.94-2.28,2.28-5.26,3.41-8.94,3.41h-55.74c-3.4,0-6.53-1.42-9.36-4.26l-119.14-132.57c-5.39-5.97-9.93-8.95-13.61-8.95-5.39,0-8.09,5.69-8.09,17.04v118.39c0,3.69-1.14,6.67-3.41,8.94s-5.27,3.41-8.97,3.41h-48.24c-3.7,0-6.69-1.13-8.96-3.41-2.28-2.27-3.42-5.25-3.42-8.94v-259.3c0-3.69,1.14-6.67,3.42-8.94,2.27-2.27,5.26-3.41,8.96-3.41h55.29c3.97,0,6.95,1.28,8.94,3.83l119.67,129.01c5.68,5.96,10.22,8.94,13.63,8.94,5.39,0,8.09-5.67,8.09-17.03V72H72v993h806.8c10.36,0,20.28,4.18,27.52,11.59l35.77,36.62c8.27,8.46,3,23.08-8.82,23.76-.32.02-.65.03-.98.03H16.71c-9.23,0-16.71-7.48-16.71-16.71V16.71C0,7.48,7.48,0,16.71,0h1068.58c9.23,0,16.71,7.48,16.71,16.71v.51c.24,1.05.36,2.17.36,3.37l1.28,1002.3Z"/>
      <path class="cls-1" d="m118.29,590.24h295.15c8.79,0,15.92,7.13,15.92,15.92v133.15c0,8.79,7.13,15.92,15.92,15.92h185.15c8.79,0,15.92,7.13,15.92,15.92v250.15c0,8.79-7.13,15.92-15.92,15.92H177.05l-58.62.52c-8.85.08-16.06-7.07-16.06-15.92v-415.67c0-8.79,7.13-15.92,15.92-15.92Zm59.08,95.92v53.15c0,8.79,7.13,15.92,15.92,15.92h146.15c8.79,0,15.92-7.13,15.92-15.92v-53.15c0-8.79-7.13-15.92-15.92-15.92h-146.15c-8.79,0-15.92,7.13-15.92,15.92Zm0,164v91.15c0,8.79,7.13,15.92,15.92,15.92h363.15c8.79,0,15.92-7.13,15.92-15.92v-91.15c0-8.79-7.13-15.92-15.92-15.92H193.29c-8.79,0-15.92,7.13-15.92,15.92Z"/>
      <path class="cls-1" d="m122.61,103.24h290.51c8.97,0,16.25,7.27,16.25,16.25v328.51c0,8.97-7.27,16.25-16.25,16.25h-110.74l36.82,52.41c7.56,10.77-.14,25.59-13.3,25.59h-49.72c-5.42,0-10.48-2.7-13.49-7.2l-42.65-63.6c-3.02-4.5-8.08-7.2-13.49-7.2h-13.93c-8.97,0-16.25,7.27-16.25,16.25v44.51c0,8.97-7.27,16.25-16.25,16.25h-37.51c-8.97,0-16.25-7.27-16.25-16.25V119.49c0-8.97,7.27-16.25,16.25-16.25Zm237.75,269.75v-178.51c0-8.97-7.27-16.25-16.25-16.25h-151.51c-8.97,0-16.25,7.27-16.25,16.25v178.51c0,8.97,7.27,16.25,16.25,16.25h151.51c8.97,0,16.25-7.27,16.25-16.25Z"/>
    </g>
  </g>
</svg>