<svg width="26" height="26" viewBox="0 0 26 26" fill="none" xmlns="http://www.w3.org/2000/svg">
<path fill-rule="evenodd" clip-rule="evenodd" d="M2 2.04211C2 1.46657 2.47405 1 3.05883 1H6.07843C6.80966 1 7.48062 1.25899 8 1.68934C8.51938 1.25899 9.19034 1 9.92157 1H12.9412C13.5259 1 14 1.46657 14 2.04211C14 2.61764 13.5259 3.08421 12.9412 3.08421H9.92157C9.44122 3.08421 9.05882 3.4649 9.05882 3.92603V20.074C9.05882 20.5351 9.44122 20.9158 9.92157 20.9158H12.9412C13.5259 20.9158 14 21.3824 14 21.9579C14 22.5334 13.5259 23 12.9412 23H9.92157C9.19034 23 8.51938 22.741 8 22.3107C7.48062 22.741 6.80965 23 6.07843 23H3.05882C2.47405 23 2 22.5334 2 21.9579C2 21.3824 2.47405 20.9158 3.05882 20.9158H6.07843C6.55878 20.9158 6.94118 20.5351 6.94118 20.074V3.92603C6.94118 3.4649 6.55878 3.08421 6.07843 3.08421H3.05883C2.47405 3.08421 2 2.61764 2 2.04211Z" fill="#1E1E1E"/>
</svg>
