<svg width="256" height="256" viewBox="0 0 256 256" fill="none" xmlns="http://www.w3.org/2000/svg">
<g clip-path="url(#clip0_379_331)">
<path d="M256 0H0V256H256V0Z" fill="black"/>
<path d="M156.23 193.826H149.336C148.817 193.826 148.397 193.667 148.078 193.347C147.758 193.028 147.598 192.609 147.598 192.091V155.818C147.598 155.3 147.756 154.881 148.078 154.562C148.4 154.244 148.817 154.083 149.336 154.083H156.111C156.629 154.083 157.049 154.244 157.369 154.562C157.688 154.883 157.849 155.301 157.849 155.818L157.969 192.091C157.969 192.609 157.808 193.028 157.488 193.347C157.168 193.666 156.748 193.826 156.23 193.826Z" fill="white"/>
<path d="M117.312 62.5225H188.274C188.792 62.5225 189.211 62.6826 189.529 63.0013C189.848 63.3215 190.008 63.74 190.008 64.2582V147.572C190.008 148.092 189.848 148.51 189.529 148.829C189.211 149.148 188.791 149.308 188.274 149.308L117.312 149.247C116.794 149.247 116.376 149.097 116.057 148.798C115.737 148.499 115.578 148.071 115.578 147.51V64.2596C115.578 63.7414 115.737 63.3215 116.057 63.0027C116.377 62.684 116.794 62.5239 117.312 62.5239V62.5225ZM179.755 137.323V74.5083C179.755 73.9901 179.595 73.5716 179.276 73.2528C178.956 72.9341 178.538 72.774 178.02 72.774H127.565C127.046 72.774 126.627 72.9341 126.309 73.2528C125.99 73.5716 125.83 73.9915 125.83 74.5083V137.323C125.83 137.842 125.988 138.26 126.309 138.579C126.627 138.899 127.047 139.058 127.565 139.058H178.02C178.538 139.058 178.956 138.899 179.276 138.579C179.597 138.259 179.755 137.842 179.755 137.323Z" fill="white"/>
<path d="M205.494 191.811C205.494 192.329 205.334 192.747 205.016 193.066C204.696 193.386 204.278 193.545 203.761 193.545H195.933C195.456 193.545 195.016 193.346 194.619 192.947L177.888 174.33C177.131 173.491 176.493 173.073 175.976 173.073C175.219 173.073 174.84 173.872 174.84 175.466V192.091C174.84 192.61 174.68 193.028 174.361 193.347C174.043 193.666 173.621 193.826 173.102 193.826H166.327C165.808 193.826 165.388 193.667 165.069 193.347C164.749 193.028 164.589 192.61 164.589 192.091V155.678C164.589 155.159 164.749 154.741 165.069 154.422C165.388 154.103 165.808 153.943 166.327 153.943H174.092C174.649 153.943 175.068 154.123 175.347 154.481L192.153 172.598C192.95 173.435 193.588 173.854 194.067 173.854C194.824 173.854 195.203 173.057 195.203 171.462V58.2756H60.6189V197.724H173.919C175.374 197.724 176.767 198.311 177.784 199.352L182.807 204.494C183.968 205.682 183.228 207.736 181.568 207.831C181.523 207.834 181.477 207.835 181.431 207.835H52.8544C51.5582 207.835 50.5078 206.785 50.5078 205.489V50.5112C50.5078 49.215 51.5582 48.1646 52.8544 48.1646H202.917C204.213 48.1646 205.263 49.215 205.263 50.5112V50.5828C205.297 50.7302 205.314 50.8875 205.314 51.056L205.494 191.811Z" fill="white"/>
<path d="M67.1199 131.053H108.568C109.803 131.053 110.804 132.054 110.804 133.288V151.987C110.804 153.221 111.805 154.222 113.04 154.222H139.041C140.275 154.222 141.276 155.224 141.276 156.458V191.587C141.276 192.822 140.275 193.823 139.041 193.823H75.3702L67.1381 193.896C65.8953 193.907 64.8828 192.903 64.8828 191.66V133.287C64.8828 132.053 65.8841 131.051 67.1185 131.051L67.1199 131.053ZM75.4166 144.523V151.987C75.4166 153.221 76.4179 154.222 77.6523 154.222H98.1763C99.4107 154.222 100.412 153.221 100.412 151.987V144.523C100.412 143.288 99.4107 142.287 98.1763 142.287H77.6523C76.4179 142.287 75.4166 143.288 75.4166 144.523ZM75.4166 167.554V180.354C75.4166 181.588 76.4179 182.59 77.6523 182.59H128.65C129.884 182.59 130.886 181.588 130.886 180.354V167.554C130.886 166.319 129.884 165.318 128.65 165.318H77.6523C76.4179 165.318 75.4166 166.319 75.4166 167.554Z" fill="white"/>
<path d="M67.7254 62.6626H108.522C109.782 62.6626 110.804 63.6835 110.804 64.9446V111.078C110.804 112.337 109.783 113.36 108.522 113.36H92.9708L98.1414 120.72C99.2031 122.232 98.1218 124.313 96.2737 124.313H89.2914C88.5303 124.313 87.8197 123.934 87.397 123.302L81.4076 114.371C80.9835 113.739 80.2729 113.36 79.5132 113.36H77.557C76.2973 113.36 75.275 114.381 75.275 115.642V121.892C75.275 123.152 74.254 124.174 72.993 124.174H67.7254C66.4657 124.174 65.4434 123.154 65.4434 121.892V64.9446C65.4434 63.6849 66.4643 62.6626 67.7254 62.6626ZM101.113 100.544V75.4756C101.113 74.2159 100.092 73.1936 98.831 73.1936H77.5542C76.2945 73.1936 75.2722 74.2145 75.2722 75.4756V100.544C75.2722 101.804 76.2931 102.826 77.5542 102.826H98.831C100.091 102.826 101.113 101.805 101.113 100.544Z" fill="white"/>
</g>
<defs>
<clipPath id="clip0_379_331">
<rect width="256" height="256" rx="20" fill="white"/>
</clipPath>
</defs>
</svg>
