<svg width="1080" height="1080" viewBox="0 0 1080 1080" fill="none" xmlns="http://www.w3.org/2000/svg">
<circle cx="540" cy="540" r="480" fill="white" stroke="black" stroke-width="8"/>
<circle cx="540" cy="540" r="411" fill="#1E1E1E" stroke="black" stroke-width="8"/>
<path fill-rule="evenodd" clip-rule="evenodd" d="M540 997C792.394 997 997 792.394 997 540C997 287.606 792.394 83 540 83C287.606 83 83 287.606 83 540C83 661.338 130.288 771.631 207.441 853.456L211.407 857.458C218.091 864.203 228.984 864.227 235.698 857.513L320.355 772.856L304.074 756.823L227.772 833.125C225.492 835.404 221.776 835.35 219.599 832.971C148.952 755.752 105.85 652.909 105.85 540C105.85 300.226 300.226 105.85 540 105.85C779.774 105.85 974.15 300.226 974.15 540C974.15 779.774 779.774 974.15 540 974.15C471.146 974.15 406.036 958.122 348.198 929.593C346.047 928.532 343.907 927.454 341.776 926.359L341.1 927.531L331.402 944.359L330.351 946.182C333.19 947.65 336.047 949.089 338.92 950.5C399.599 980.279 467.847 997 540 997Z" fill="#FDC500"/>
<path d="M327.064 919.427L317.353 936.248L331.402 944.359L341.1 927.531L327.064 919.427Z" fill="#FFFBFB"/>
<path d="M311.91 910.678L302.199 927.499L317.353 936.248L327.064 919.427L311.91 910.678Z" fill="#FFFBFB"/>
<path d="M301.807 904.845L288.971 907.246L292.096 921.666L302.199 927.499L311.91 910.678L301.807 904.845Z" fill="#FFFBFB"/>
<path d="M311.91 910.678L301.807 904.845L288.971 907.246L292.096 921.666L302.199 927.499M311.91 910.678L302.199 927.499M311.91 910.678L327.064 919.427M302.199 927.499L317.353 936.248M327.064 919.427L317.353 936.248M327.064 919.427L341.1 927.531M317.353 936.248L331.402 944.359M341.1 927.531L341.776 926.359C343.907 927.454 346.047 928.532 348.198 929.593C406.036 958.122 471.146 974.15 540 974.15C779.774 974.15 974.15 779.774 974.15 540C974.15 300.226 779.774 105.85 540 105.85C300.226 105.85 105.85 300.226 105.85 540C105.85 652.909 148.952 755.751 219.599 832.971M341.1 927.531L331.402 944.359M331.402 944.359L330.351 946.182C333.19 947.65 336.047 949.089 338.92 950.5C399.599 980.279 467.847 997 540 997C792.394 997 997 792.394 997 540C997 287.606 792.394 83 540 83C287.606 83 83 287.606 83 540C83 661.338 130.288 771.631 207.441 853.456L211.407 857.458M219.599 832.971C221.776 835.35 225.492 835.404 227.772 833.125M219.599 832.971C219.765 833.152 219.93 833.332 220.096 833.513C222.004 835.591 225.257 835.64 227.252 833.644L227.772 833.125M227.772 833.125L304.074 756.823L320.355 772.856L235.698 857.513M235.698 857.513C228.984 864.227 218.091 864.203 211.407 857.458M235.698 857.513L234.18 859.032C228.303 864.908 218.768 864.887 212.918 858.983L211.407 857.458" stroke="black" stroke-width="8" stroke-linejoin="round"/>
<path d="M782.857 540C782.857 405.874 674.126 297.143 540 297.143M588.571 402.577C629.974 417.211 662.789 450.026 677.423 491.429M491.429 203.443C507.292 201.174 523.509 200 540 200C727.777 200 880 352.223 880 540C880 556.491 878.826 572.708 876.557 588.571M370 366.565C325.038 410.642 297.143 472.063 297.143 540C297.143 548.196 297.549 556.298 298.342 564.286M394.286 232.719C279.417 287.287 200 404.369 200 540C200 565.119 202.724 589.603 207.893 613.17M713.435 710C669.358 754.962 607.937 782.857 540 782.857C531.804 782.857 523.702 782.451 515.714 781.658M467.143 872.176C490.614 877.3 514.992 880 540 880C675.631 880 792.713 800.583 847.281 685.714" stroke="white" stroke-width="16" stroke-linecap="round" stroke-linejoin="round"/>
<path d="M439.676 306.86L771.481 638.665L751.963 658.183L732.445 638.665C615.445 674.032 553.526 703.098 449.435 765.532L400.64 814.327L361.604 775.291L342.086 794.809L283.532 736.255L303.05 716.737L264.014 677.701L312.809 628.906C378.578 523.294 406.263 460.801 439.676 345.896L420.158 326.378L439.676 306.86Z" fill="#F72585"/>
<path d="M303.05 716.737L264.014 677.701L312.809 628.906C378.578 523.294 406.263 460.801 439.676 345.896L420.158 326.378L439.676 306.86L771.481 638.665L751.963 658.183L732.445 638.665C615.445 674.032 553.526 703.098 449.435 765.532L400.64 814.327L361.604 775.291M303.05 716.737L283.532 736.255L342.086 794.809L361.604 775.291M303.05 716.737L361.604 775.291M459.194 365.414L478.712 384.932M498.23 404.45L634.855 541.076M332.327 648.424L390.881 706.978" stroke="black" stroke-width="8" stroke-linecap="round" stroke-linejoin="round"/>
</svg>
