<svg width="3810" height="1080" viewBox="0 0 3810 1080" fill="none" xmlns="http://www.w3.org/2000/svg">
<circle cx="540" cy="540" r="480" fill="white" stroke="black" stroke-width="8"/>
<circle cx="540" cy="540" r="411" fill="#1E1E1E" stroke="black" stroke-width="8"/>
<path fill-rule="evenodd" clip-rule="evenodd" d="M540 997C792.394 997 997 792.394 997 540C997 287.606 792.394 83 540 83C287.606 83 83 287.606 83 540C83 661.338 130.288 771.631 207.441 853.456L211.407 857.458C218.091 864.203 228.984 864.227 235.698 857.513L320.355 772.856L304.074 756.823L227.772 833.125C225.492 835.404 221.776 835.35 219.599 832.971C148.952 755.751 105.85 652.909 105.85 540C105.85 300.226 300.226 105.85 540 105.85C779.774 105.85 974.15 300.226 974.15 540C974.15 779.774 779.774 974.15 540 974.15C471.146 974.15 406.036 958.122 348.198 929.593C346.047 928.532 343.907 927.454 341.776 926.359L341.1 927.531L331.402 944.359L330.351 946.182C333.19 947.65 336.047 949.089 338.92 950.5C399.599 980.279 467.847 997 540 997Z" fill="#FDC500"/>
<path d="M327.064 919.427L317.353 936.248L331.402 944.359L341.1 927.531L327.064 919.427Z" fill="#FFFBFB"/>
<path d="M311.91 910.678L302.199 927.499L317.353 936.248L327.064 919.427L311.91 910.678Z" fill="#FFFBFB"/>
<path d="M301.807 904.845L288.971 907.246L292.096 921.666L302.199 927.499L311.91 910.678L301.807 904.845Z" fill="#FFFBFB"/>
<path d="M311.91 910.678L301.807 904.845L288.971 907.246L292.096 921.666L302.199 927.499M311.91 910.678L302.199 927.499M311.91 910.678L327.064 919.427M302.199 927.499L317.353 936.248M327.064 919.427L317.353 936.248M327.064 919.427L341.1 927.531M317.353 936.248L331.402 944.359M341.1 927.531L341.776 926.359C343.907 927.454 346.047 928.532 348.198 929.593C406.036 958.122 471.146 974.15 540 974.15C779.774 974.15 974.15 779.774 974.15 540C974.15 300.226 779.774 105.85 540 105.85C300.226 105.85 105.85 300.226 105.85 540C105.85 652.909 148.952 755.751 219.599 832.971M341.1 927.531L331.402 944.359M331.402 944.359L330.351 946.182C333.19 947.65 336.047 949.089 338.92 950.5C399.599 980.279 467.847 997 540 997C792.394 997 997 792.394 997 540C997 287.606 792.394 83 540 83C287.606 83 83 287.606 83 540C83 661.338 130.288 771.631 207.441 853.456L211.407 857.458M219.599 832.971C221.776 835.35 225.492 835.404 227.772 833.125M219.599 832.971C219.765 833.152 219.93 833.332 220.096 833.513C222.004 835.591 225.257 835.64 227.252 833.644L227.772 833.125M227.772 833.125L304.074 756.823L320.355 772.856L235.698 857.513M235.698 857.513C228.984 864.227 218.091 864.203 211.407 857.458M235.698 857.513L234.18 859.032C228.303 864.908 218.768 864.887 212.918 858.983L211.407 857.458" stroke="black" stroke-width="8" stroke-linejoin="round"/>
<path d="M782.857 540C782.857 405.874 674.126 297.143 540 297.143M588.571 402.577C629.974 417.211 662.789 450.026 677.423 491.429M491.429 203.443C507.292 201.174 523.509 200 540 200C727.777 200 880 352.223 880 540C880 556.491 878.826 572.708 876.557 588.571M370 366.565C325.038 410.642 297.143 472.063 297.143 540C297.143 548.196 297.549 556.298 298.342 564.286M394.286 232.719C279.417 287.287 200 404.369 200 540C200 565.119 202.724 589.603 207.893 613.17M713.435 710C669.358 754.962 607.937 782.857 540 782.857C531.804 782.857 523.702 782.451 515.714 781.658M467.143 872.176C490.614 877.3 514.992 880 540 880C675.631 880 792.713 800.583 847.281 685.714" stroke="white" stroke-width="16" stroke-linecap="round" stroke-linejoin="round"/>
<path d="M439.676 306.86L771.481 638.665L751.963 658.183L732.445 638.665C615.445 674.032 553.526 703.098 449.435 765.532L400.64 814.327L361.604 775.291L342.086 794.809L283.532 736.255L303.05 716.737L264.014 677.701L312.809 628.906C378.578 523.294 406.263 460.801 439.676 345.896L420.158 326.378L439.676 306.86Z" fill="#F72585"/>
<path d="M303.05 716.737L264.014 677.701L312.809 628.906C378.578 523.294 406.263 460.801 439.676 345.896L420.158 326.378L439.676 306.86L771.481 638.665L751.963 658.183L732.445 638.665C615.445 674.032 553.526 703.098 449.435 765.532L400.64 814.327L361.604 775.291M303.05 716.737L283.532 736.255L342.086 794.809L361.604 775.291M303.05 716.737L361.604 775.291M459.194 365.414L478.712 384.932M498.23 404.45L634.855 541.076M332.327 648.424L390.881 706.978" stroke="black" stroke-width="8" stroke-linecap="round" stroke-linejoin="round"/>
<path d="M1180 797.25L1273 282C1273.5 280 1274.75 279 1276.75 279H1385.5C1387.5 279 1388.75 280 1389.25 282L1478.5 797.25C1479 799.75 1478 801 1475.5 801H1392.25C1390.25 801 1389 799.75 1388.5 797.25L1380.25 742.5H1278.25L1270 797.25C1269.5 799.75 1268.25 801 1266.25 801H1183C1181 801 1180 799.75 1180 797.25ZM1293.25 662.25H1365.25L1334.5 451.5L1330 423.75L1327 451.5L1293.25 662.25Z" fill="#1E1E1E"/>
<path d="M1528.57 801C1526.57 801 1525.57 799.75 1525.57 797.25L1527.07 282C1527.07 280 1528.07 279 1530.07 279H1621.57C1623.57 279 1625.32 280 1626.82 282L1695.07 381L1763.32 282C1764.82 280 1766.57 279 1768.57 279H1860.82C1862.82 279 1863.82 280 1863.82 282L1865.32 797.25C1865.32 799.75 1864.32 801 1862.32 801H1777.57C1775.57 801 1774.57 799.75 1774.57 797.25L1773.82 414.75L1695.07 528.75L1617.07 414.75L1616.32 797.25C1616.32 799.75 1615.32 801 1613.32 801H1528.57Z" fill="#1E1E1E"/>
<path d="M1932.15 801C1929.65 801 1928.4 799.75 1928.4 797.25L1929.9 282C1929.9 280 1930.9 279 1932.9 279H2076.9C2122.9 279 2159.15 293 2185.65 321C2212.65 349 2226.15 387 2226.15 435C2226.15 470.5 2219.15 501.25 2205.15 527.25C2191.15 553.25 2172.9 573.25 2150.4 587.25C2127.9 601.25 2103.4 608.25 2076.9 608.25H2019.9V797.25C2019.9 799.75 2018.65 801 2016.15 801H1932.15ZM2019.9 517.5H2076.9C2092.9 517.5 2106.65 510 2118.15 495C2130.15 479.5 2136.15 459.5 2136.15 435C2136.15 415.5 2130.9 399.5 2120.4 387C2109.9 374.5 2095.4 368.25 2076.9 368.25L2019.9 369V517.5Z" fill="#1E1E1E"/>
<path d="M2274.17 801C2272.17 801 2271.17 799.75 2271.17 797.25L2271.92 282.75C2271.92 280.25 2273.17 279 2275.67 279H2358.92C2361.42 279 2362.67 280.25 2362.67 282.75L2361.92 708.75H2516.42C2518.92 708.75 2520.17 710 2520.17 712.5V797.25C2520.17 799.75 2518.92 801 2516.42 801H2274.17Z" fill="#1E1E1E"/>
<path d="M2573.02 801C2570.52 801 2569.27 799.75 2569.27 797.25L2570.02 282C2570.02 280 2571.02 279 2573.02 279H2657.02C2659.02 279 2660.02 280 2660.02 282L2660.77 797.25C2660.77 799.75 2659.77 801 2657.77 801H2573.02Z" fill="#1E1E1E"/>
<path d="M2730.49 801C2727.99 801 2726.74 799.75 2726.74 797.25L2728.24 282C2728.24 280 2729.24 279 2731.24 279H2971.24C2973.74 279 2974.99 280 2974.99 282V366.75C2974.99 368.75 2973.99 369.75 2971.99 369.75H2818.24V486H2971.99C2973.99 486 2974.99 487.25 2974.99 489.75L2975.74 574.5C2975.74 576.5 2974.49 577.5 2971.99 577.5H2818.24V797.25C2818.24 799.75 2816.99 801 2814.49 801H2730.49Z" fill="#1E1E1E"/>
<path d="M3046.16 801C3043.66 801 3042.41 799.75 3042.41 797.25L3043.16 282C3043.16 280 3044.16 279 3046.16 279H3130.16C3132.16 279 3133.16 280 3133.16 282L3133.91 797.25C3133.91 799.75 3132.91 801 3130.91 801H3046.16Z" fill="#1E1E1E"/>
<path d="M3202.88 801C3200.88 801 3199.88 799.75 3199.88 797.25L3200.63 282C3200.63 280 3201.63 279 3203.63 279H3444.38C3446.38 279 3447.38 280.25 3447.38 282.75V366.75C3447.38 368.75 3446.38 369.75 3444.38 369.75H3290.63V486.75H3444.38C3446.38 486.75 3447.38 487.75 3447.38 489.75L3448.13 574.5C3448.13 576.5 3447.13 577.5 3445.13 577.5H3290.63V708.75H3445.13C3447.13 708.75 3448.13 710 3448.13 712.5V798C3448.13 800 3447.13 801 3445.13 801H3202.88Z" fill="#1E1E1E"/>
<path d="M3518.58 801C3516.08 801 3514.83 799.75 3514.83 797.25L3516.33 282C3516.33 280 3517.33 279 3519.33 279L3659.58 278.25C3687.08 277.75 3712.08 284.25 3734.58 297.75C3757.58 311.25 3775.83 329.5 3789.33 352.5C3802.83 375 3809.58 400 3809.58 427.5V642.75C3809.58 671.75 3802.58 698.25 3788.58 722.25C3774.58 745.75 3755.83 764.5 3732.33 778.5C3708.83 792.5 3682.33 799.75 3652.83 800.25L3518.58 801ZM3606.33 708.75H3652.83C3671.33 708.75 3686.83 702.25 3699.33 689.25C3712.33 676.25 3718.83 660.75 3718.83 642.75V426.75C3718.83 410.75 3712.83 397 3700.83 385.5C3689.33 373.5 3675.58 367.75 3659.58 368.25L3607.08 369L3606.33 708.75Z" fill="#1E1E1E"/>
</svg>
